<?xml version="1.0" encoding="utf-8"?>
<!-- Generator: Adobe Illustrator 22.0.1, SVG Export Plug-In . SVG Version: 6.00 Build 0)  -->
<svg version="1.1" xmlns="http://www.w3.org/2000/svg" xmlns:xlink="http://www.w3.org/1999/xlink" x="0px" y="0px"
	 viewBox="0 0 1096 780" style="enable-background:new 0 0 1096 780;" xml:space="preserve">
<style type="text/css">
	.st0{fill:#FFFFFF;}
	.st1{opacity:0.49;}
	.st2{clip-path:url(#SVGID_2_);}
	.st3{fill:#FFB88B;}
	.st4{clip-path:url(#SVGID_4_);fill:#FF7F83;}
	.st5{clip-path:url(#SVGID_4_);fill:#009FE3;}
	.st6{clip-path:url(#SVGID_4_);fill:#EB5A6A;}
	.st7{clip-path:url(#SVGID_4_);fill:#5CBD6D;}
	.st8{clip-path:url(#SVGID_4_);fill:#73CFD7;}
	.st9{clip-path:url(#SVGID_4_);fill:#916DFF;}
	.st10{clip-path:url(#SVGID_4_);fill:#FEB41D;}
	.st11{clip-path:url(#SVGID_4_);fill:#E2023F;}
	.st12{display:none;}
	.st13{display:inline;}
	.st14{fill:#4D4D4D;}
</style>
<g id="Layer_3">
	<g>
		<rect class="st0" width="1096" height="780"/>
		<g class="st1">
			<defs>
				<rect id="SVGID_1_" class="st1" width="1096" height="780"/>
			</defs>
			<clipPath id="SVGID_2_">
				<use xlink:href="#SVGID_1_"  style="overflow:visible;"/>
			</clipPath>
			<g class="st2">
				
					<rect x="-319.9" y="-384.6" transform="matrix(0.7071 0.7071 -0.7071 0.7071 158.5002 315.7191)" class="st3" width="36" height="1467.7"/>
				
					<rect x="-208.9" y="-384.6" transform="matrix(0.7071 0.7071 -0.7071 0.7071 191.0113 237.2302)" class="st3" width="36" height="1467.7"/>
				
					<rect x="-97.9" y="-384.6" transform="matrix(0.7071 0.7071 -0.7071 0.7071 223.5225 158.7413)" class="st3" width="36" height="1467.7"/>
				
					<rect x="13.1" y="-384.6" transform="matrix(0.7071 0.7071 -0.7071 0.7071 256.0336 80.2525)" class="st3" width="36" height="1467.7"/>
				
					<rect x="124.1" y="-384.6" transform="matrix(0.7071 0.7071 -0.7071 0.7071 288.5448 1.7636)" class="st3" width="36" height="1467.7"/>
				
					<rect x="235.1" y="-384.6" transform="matrix(0.7071 0.7071 -0.7071 0.7071 321.0559 -76.7252)" class="st3" width="36" height="1467.7"/>
				
					<rect x="346.1" y="-384.6" transform="matrix(0.7071 0.7071 -0.7071 0.7071 353.567 -155.2141)" class="st3" width="36" height="1467.7"/>
				
					<rect x="457.1" y="-384.6" transform="matrix(0.7071 0.7071 -0.7071 0.7071 386.0782 -233.703)" class="st3" width="36" height="1467.7"/>
				
					<rect x="568.1" y="-384.6" transform="matrix(0.7071 0.7071 -0.7071 0.7071 418.5894 -312.1918)" class="st3" width="36" height="1467.7"/>
				
					<rect x="679.1" y="-384.6" transform="matrix(0.7071 0.7071 -0.7071 0.7071 451.1005 -390.6807)" class="st3" width="36" height="1467.7"/>
				
					<rect x="790.1" y="-384.6" transform="matrix(0.7071 0.7071 -0.7071 0.7071 483.6117 -469.1695)" class="st3" width="36" height="1467.7"/>
				
					<rect x="901.1" y="-384.6" transform="matrix(0.7071 0.7071 -0.7071 0.7071 516.1228 -547.6584)" class="st3" width="36" height="1467.7"/>
				
					<rect x="1012.1" y="-384.6" transform="matrix(0.7071 0.7071 -0.7071 0.7071 548.634 -626.1472)" class="st3" width="36" height="1467.7"/>
				
					<rect x="1123.1" y="-384.6" transform="matrix(0.7071 0.7071 -0.7071 0.7071 581.1451 -704.6361)" class="st3" width="36" height="1467.7"/>
				
					<rect x="1234.1" y="-384.6" transform="matrix(0.7071 0.7071 -0.7071 0.7071 613.6563 -783.1249)" class="st3" width="36" height="1467.7"/>
				
					<rect x="1345.1" y="-384.6" transform="matrix(0.7071 0.7071 -0.7071 0.7071 646.1674 -861.6138)" class="st3" width="36" height="1467.7"/>
				
					<rect x="1456.1" y="-384.6" transform="matrix(0.7071 0.7071 -0.7071 0.7071 678.6785 -940.1027)" class="st3" width="36" height="1467.7"/>
			</g>
		</g>
		<g>
			<defs>
				<rect id="SVGID_3_" width="1096" height="780"/>
			</defs>
			<clipPath id="SVGID_4_">
				<use xlink:href="#SVGID_3_"  style="overflow:visible;"/>
			</clipPath>
			<path class="st4" d="M132.2,214.8c-13.3,0-24.1,10.8-24.1,24.1c0,13.3,10.8,24.1,24.1,24.1c13.3,0,24.1-10.8,24.1-24.1
				C156.3,225.6,145.5,214.8,132.2,214.8z"/>
			<path class="st5" d="M244.3,255.3c8,0,14.5-6.5,14.5-14.5c0-8-6.5-14.5-14.5-14.5c-8,0-14.5,6.5-14.5,14.5
				C229.8,248.8,236.3,255.3,244.3,255.3z"/>
			<path class="st6" d="M139.5,71.2c7.4,0,13.4-6,13.4-13.4c0-7.4-6-13.4-13.4-13.4c-7.4,0-13.4,6-13.4,13.4
				C126.1,65.2,132.1,71.2,139.5,71.2z"/>
			<path class="st7" d="M370.2,246.1c0-7.1-5.8-12.9-12.9-12.9c-7.1,0-12.9,5.8-12.9,12.9c0,7.1,5.8,12.9,12.9,12.9
				C364.4,259,370.2,253.2,370.2,246.1z"/>
			<path class="st4" d="M247.1,16.4c1.8,0,3.2-1.4,3.2-3.2s-1.4-3.2-3.2-3.2c-1.8,0-3.2,1.4-3.2,3.2S245.4,16.4,247.1,16.4z"/>
			<path class="st8" d="M369.7,148c5.4,4.6,13.6,4,18.2-1.5c4.6-5.4,4-13.6-1.5-18.2c-5.4-4.6-13.6-4-18.2,1.5
				C363.6,135.3,364.2,143.4,369.7,148z"/>
			<path class="st7" d="M411.5,163.3c-6.3,7.4-5.4,18.5,2,24.7c7.4,6.3,18.5,5.4,24.7-2c6.3-7.4,5.4-18.5-2-24.7
				C428.9,155.1,417.8,155.9,411.5,163.3z"/>
			<path class="st9" d="M194.4,55.1c4.5,3.8,11.1,3.3,14.9-1.2c3.8-4.5,3.3-11.1-1.2-14.9c-4.5-3.8-11.1-3.3-14.9,1.2
				C189.4,44.6,190,51.3,194.4,55.1z"/>
			<path class="st7" d="M196,115.8c-3.1,9.2,1.8,19.1,11,22.3c9.2,3.1,19.1-1.8,22.3-11c3.1-9.2-1.8-19.1-11-22.3
				C209.1,101.7,199.1,106.6,196,115.8z"/>
			<path class="st5" d="M306.2,412.2c1.9-5.5-1.1-11.5-6.6-13.4c-5.5-1.9-11.5,1.1-13.4,6.6c-1.9,5.5,1.1,11.5,6.6,13.4
				C298.3,420.7,304.3,417.8,306.2,412.2z"/>
			<path class="st10" d="M277.7,183.7c7,2.4,14.7-1.4,17-8.4c2.4-7-1.4-14.7-8.4-17c-7-2.4-14.7,1.4-17,8.4
				C266.9,173.7,270.7,181.3,277.7,183.7z"/>
			<path class="st7" d="M59.3,413.9c-6.8-2.3-14.1,1.3-16.4,8.1c-2.3,6.8,1.3,14.1,8.1,16.4c6.8,2.3,14.1-1.3,16.4-8.1
				C69.7,423.6,66.1,416.2,59.3,413.9z"/>
			<path class="st8" d="M407.2,109.7c3,1,6.2-0.6,7.2-3.5s-0.6-6.2-3.5-7.2c-3-1-6.2,0.6-7.2,3.5
				C402.6,105.4,404.2,108.7,407.2,109.7z"/>
			<path class="st11" d="M308.8,72.8c8.3-5,11-15.7,6.1-24.1c-5-8.3-15.7-11-24.1-6.1c-8.3,5-11,15.7-6.1,24.1
				C289.7,75.1,300.4,77.8,308.8,72.8z"/>
			<path class="st5" d="M88.4,192.2c3-1.8,3.9-5.6,2.2-8.6c-1.8-3-5.6-3.9-8.6-2.2c-3,1.8-3.9,5.6-2.2,8.6
				C81.6,193,85.5,194,88.4,192.2z"/>
			<path class="st8" d="M175.4,188.8c3.1-1.8,4.1-5.8,2.2-8.8c-1.8-3.1-5.8-4.1-8.8-2.2c-3.1,1.8-4.1,5.8-2.2,8.8
				C168.4,189.6,172.4,190.6,175.4,188.8z"/>
			<path class="st8" d="M18.8,202.2c3.7,6.1,11.6,8.1,17.7,4.5c6.1-3.7,8.1-11.6,4.5-17.7c-3.7-6.1-11.6-8.1-17.7-4.5
				C17.2,188.1,15.2,196,18.8,202.2z"/>
			<path class="st7" d="M360.6,62.4c2.5-1.5,3.3-4.7,1.8-7.3c-1.5-2.5-4.7-3.3-7.3-1.8c-2.5,1.5-3.3,4.7-1.8,7.3
				C354.8,63.1,358.1,63.9,360.6,62.4z"/>
			<path class="st9" d="M711.3,51.7c1.5-0.9,2-2.9,1.1-4.4c-0.9-1.5-2.9-2-4.4-1.1c-1.5,0.9-2,2.9-1.1,4.4
				C707.9,52.1,709.8,52.6,711.3,51.7z"/>
			<path class="st10" d="M115.9,154.4c8.3-5,11-15.7,6.1-24c-5-8.3-15.7-11-24-6.1c-8.3,5-11,15.7-6.1,24
				C96.8,156.6,107.6,159.3,115.9,154.4z"/>
			<path class="st5" d="M59.6,96.8c-3.9,2.3-5.2,7.4-2.9,11.3c2.3,3.9,7.4,5.2,11.3,2.9c3.9-2.3,5.2-7.4,2.9-11.3
				C68.5,95.7,63.5,94.5,59.6,96.8z"/>
			<path class="st5" d="M201.9,261.1c-1.2-2.1-3.9-2.8-6-1.5c-2.1,1.2-2.8,3.9-1.5,6c1.2,2.1,3.9,2.8,6,1.5
				C202.5,265.9,203.2,263.2,201.9,261.1z"/>
			<path class="st10" d="M229.3,188.6c-1-1.6-3-2.1-4.6-1.2c-1.6,0.9-2.1,3-1.2,4.6c0.9,1.6,3,2.1,4.6,1.2
				C229.7,192.3,230.2,190.2,229.3,188.6z"/>
			<path class="st11" d="M172.7,295.4c-2.4,7,1.4,14.7,8.4,17c7,2.4,14.7-1.4,17-8.4c2.4-7-1.4-14.7-8.4-17
				C182.7,284.6,175.1,288.3,172.7,295.4z"/>
			<path class="st9" d="M70,315.3c1.8,3.1,5.8,4.1,8.8,2.2c3.1-1.8,4.1-5.8,2.2-8.8c-1.8-3.1-5.8-4.1-8.8-2.2
				C69.2,308.3,68.2,312.3,70,315.3z"/>
			<path class="st10" d="M132.7,317.4c-1-1.6-3-2.1-4.6-1.2c-1.6,0.9-2.1,3-1.2,4.6c0.9,1.6,3,2.1,4.6,1.2
				C133.1,321,133.7,318.9,132.7,317.4z"/>
			<path class="st5" d="M124.4,345.3c0-3.2-2.6-5.8-5.8-5.8c-3.2,0-5.8,2.6-5.8,5.8c0,3.2,2.6,5.8,5.8,5.8
				C121.8,351.1,124.4,348.5,124.4,345.3z"/>
			<path class="st10" d="M57,258.8c7,2.4,14.7-1.4,17-8.4c2.4-7-1.4-14.7-8.4-17c-7-2.4-14.7,1.4-17,8.4
				C46.2,248.8,50,256.4,57,258.8z"/>
			<path class="st8" d="M-33.3,293.7c5.3-3.2,7-10,3.9-15.3c-3.2-5.3-10-7-15.3-3.9c-5.3,3.2-7,10-3.9,15.3
				C-45.4,295.1-38.6,296.9-33.3,293.7z"/>
			<path class="st5" d="M-28,342.3c2.1-1.2,2.8-3.9,1.5-6c-1.2-2.1-3.9-2.8-6-1.5c-2.1,1.2-2.8,3.9-1.5,6
				C-32.7,342.8-30,343.5-28,342.3z"/>
			<path class="st10" d="M-0.2,268.3c1.6-1,2.1-3,1.2-4.6c-1-1.6-3-2.1-4.6-1.2c-1.6,0.9-2.1,3-1.2,4.6
				C-3.9,268.7-1.8,269.3-0.2,268.3z"/>
			<path class="st11" d="M35,345.2c-7-2.4-14.7,1.4-17,8.4c-2.4,7,1.4,14.7,8.4,17c7,2.4,14.7-1.4,17-8.4
				C45.8,355.2,42,347.6,35,345.2z"/>
			<path class="st9" d="M-11.9,135.8c13.3,0,24.1-10.8,24.1-24.1c0-13.3-10.8-24.1-24.1-24.1c-13.3,0-24.1,10.8-24.1,24.1
				C-36,125-25.2,135.8-11.9,135.8z"/>
			<path class="st9" d="M51,19.3c3.1-1.8,4.1-5.8,2.2-8.8c-1.8-3.1-5.8-4.1-8.8-2.2C41.4,10,40.4,14,42.2,17
				C44,20.1,48,21.1,51,19.3z"/>
			<path class="st10" d="M140.7-12.1c1.6-1,2.1-3,1.2-4.6c-1-1.6-3-2.1-4.6-1.2c-1.6,0.9-2.1,3-1.2,4.6
				C137.1-11.7,139.2-11.2,140.7-12.1z"/>
			<path class="st5" d="M101.8,30.8c3.2,0,5.8-2.6,5.8-5.8c0-3.2-2.6-5.8-5.8-5.8c-3.2,0-5.8,2.6-5.8,5.8
				C96,28.2,98.6,30.8,101.8,30.8z"/>
			<path class="st11" d="M1.9,50.3c7,2.4,14.7-1.4,17-8.4c2.4-7-1.4-14.7-8.4-17c-7-2.4-14.7,1.4-17,8.4C-8.9,40.3-5.2,48,1.9,50.3z
				"/>
			<path class="st9" d="M304.4,219.7c-3.6,0-6.5,2.9-6.5,6.4c0,3.6,2.9,6.5,6.4,6.5c3.6,0,6.5-2.9,6.5-6.4
				C310.8,222.6,307.9,219.7,304.4,219.7z"/>
			<path class="st10" d="M258.7,134.5c1.9,0,3.4-1.5,3.4-3.3c0-1.9-1.5-3.4-3.3-3.4c-1.9,0-3.4,1.5-3.4,3.3
				C255.4,133,256.9,134.5,258.7,134.5z"/>
			<path class="st5" d="M323,183.8c2.7,1.6,6.3,0.8,7.9-2c1.6-2.7,0.8-6.3-2-7.9c-2.7-1.6-6.3-0.8-7.9,2
				C319.4,178.5,320.3,182.1,323,183.8z"/>
			<path class="st5" d="M251.6,296.2c0-2.4-2-4.4-4.4-4.4c-2.4,0-4.4,2-4.4,4.4c0,2.4,1.9,4.4,4.4,4.4
				C249.7,300.6,251.6,298.7,251.6,296.2z"/>
			<path class="st9" d="M190.1,230c1.9,0,3.4-1.5,3.4-3.3c0-1.9-1.5-3.4-3.3-3.4c-1.9,0-3.4,1.5-3.4,3.3
				C186.7,228.5,188.2,230,190.1,230z"/>
			<path class="st11" d="M306.2,265.8c-4.8-5.7-13.3-6.4-18.9-1.6c-5.7,4.8-6.4,13.3-1.6,18.9c4.8,5.7,13.3,6.4,18.9,1.6
				C310.3,279.9,311,271.4,306.2,265.8z"/>
			<path class="st5" d="M144.2,388.2c6.1-0.4,10.8-5.6,10.5-11.8c-0.4-6.1-5.6-10.8-11.8-10.5c-6.1,0.4-10.8,5.6-10.5,11.8
				C132.8,383.9,138.1,388.6,144.2,388.2z"/>
			<path class="st7" d="M298.9,333.1c2.3,0.6,4.7-0.7,5.4-3c0.6-2.3-0.7-4.7-3-5.4c-2.3-0.6-4.7,0.7-5.4,3
				C295.2,330,296.6,332.4,298.9,333.1z"/>
			<path class="st10" d="M179.7,417.1c-1.5,5.5,1.7,11.2,7.2,12.7c5.5,1.5,11.2-1.7,12.7-7.2c1.5-5.5-1.7-11.2-7.2-12.7
				C187,408.3,181.3,411.6,179.7,417.1z"/>
			<path class="st10" d="M419.7,704.1c-1.5,5.5,1.7,11.2,7.2,12.7c5.5,1.5,11.2-1.7,12.7-7.2c1.5-5.5-1.7-11.2-7.2-12.7
				C427,695.3,421.3,698.6,419.7,704.1z"/>
			<path class="st8" d="M246.9,357.7c-1.5-2.3-4.6-2.9-6.9-1.3c-2.3,1.5-2.9,4.6-1.3,6.9c1.5,2.3,4.6,2.9,6.9,1.3
				C247.9,363.1,248.5,360,246.9,357.7z"/>
			<path class="st10" d="M82.5,370.5c-1.5,1-2,3.2-0.9,4.7c1,1.5,3.2,2,4.7,0.9c1.5-1,2-3.2,0.9-4.7C86.1,369.8,84,369.4,82.5,370.5
				z"/>
			<path class="st10" d="M155,439.2c-0.9,1.1-0.7,2.7,0.5,3.6c1.1,0.9,2.7,0.7,3.6-0.4c0.9-1.1,0.7-2.7-0.5-3.6
				C157.5,437.9,155.9,438.1,155,439.2z"/>
			<path class="st11" d="M411.8,73.2c5.5,1.5,11.2-1.7,12.7-7.2c1.5-5.5-1.7-11.2-7.2-12.7c-5.5-1.5-11.2,1.7-12.7,7.2
				C403.1,66,406.3,71.7,411.8,73.2z"/>
			<path class="st9" d="M192.4,346.2c0.1,2.7,2.5,4.8,5.2,4.7c2.7-0.1,4.8-2.5,4.7-5.2c-0.1-2.7-2.5-4.8-5.2-4.7
				C194.4,341.1,192.3,343.5,192.4,346.2z"/>
			<path class="st10" d="M240.6,405.3c-1.4,0.1-2.5,1.3-2.4,2.7c0.1,1.4,1.3,2.5,2.7,2.4c1.4-0.1,2.5-1.3,2.4-2.7
				C243.2,406.3,242,405.2,240.6,405.3z"/>
			<path class="st5" d="M178.6,462.6c-1.1,2.2-0.3,4.9,1.9,6c2.2,1.1,4.9,0.3,6-1.9c1.1-2.2,0.3-4.9-1.9-6
				C182.4,459.6,179.8,460.4,178.6,462.6z"/>
			<path class="st5" d="M88.7,406c-1.9,0.1-3.3,1.7-3.2,3.6c0.1,1.9,1.7,3.3,3.6,3.2c1.9-0.1,3.3-1.7,3.2-3.6
				C92.2,407.3,90.6,405.9,88.7,406z"/>
			<path class="st9" d="M120,275.7c1.4-0.1,2.5-1.3,2.4-2.7c-0.1-1.4-1.3-2.5-2.7-2.4c-1.4,0.1-2.5,1.3-2.4,2.7
				C117.4,274.7,118.6,275.8,120,275.7z"/>
			<path class="st11" d="M110.7,448.8c3.9,4.1,10.5,4.3,14.6,0.4c4.1-3.9,4.3-10.5,0.4-14.6c-3.9-4.1-10.5-4.3-14.6-0.4
				C106.9,438.1,106.7,444.6,110.7,448.8z"/>
			<path class="st8" d="M533.8,504.3c-5.4-7.4-15.8-9.1-23.3-3.6c-7.4,5.4-9.1,15.8-3.6,23.3c5.4,7.4,15.8,9.1,23.3,3.6
				C537.6,522.2,539.2,511.8,533.8,504.3z"/>
			<path class="st5" d="M412.1,594.8c4.7,6.5,13.8,7.9,20.2,3.2c6.5-4.7,7.9-13.8,3.2-20.2c-4.7-6.5-13.8-7.9-20.2-3.2
				C408.8,579.3,407.4,588.3,412.1,594.8z"/>
			<path class="st6" d="M602.1,652.9c-6,4.4-7.3,12.8-2.9,18.8c4.4,6,12.8,7.3,18.8,2.9c6-4.4,7.3-12.8,2.9-18.8
				C616.5,649.8,608.1,648.5,602.1,652.9z"/>
			<path class="st7" d="M319,656.1c4.2,5.8,12.3,7,18.1,2.8c5.8-4.2,7-12.3,2.8-18.1c-4.2-5.8-12.3-7-18.1-2.8
				C316.1,642.3,314.8,650.4,319,656.1z"/>
			<path class="st4" d="M551.2,765.7c1.4-1,1.7-3,0.7-4.4c-1-1.4-3-1.7-4.4-0.7c-1.4,1-1.7,3-0.7,4.4
				C547.8,766.4,549.8,766.7,551.2,765.7z"/>
			<path class="st8" d="M377.2,735.1c-7.1-0.5-13.3,4.8-13.9,11.9c-0.5,7.1,4.8,13.3,11.9,13.9c7.1,0.5,13.3-4.8,13.9-11.9
				C389.6,741.8,384.3,735.6,377.2,735.1z"/>
			<path class="st7" d="M318.2,728.5c-9.7-0.7-18.1,6.5-18.8,16.2c-0.7,9.7,6.5,18.1,16.2,18.8c9.7,0.7,18.1-6.5,18.8-16.2
				C335.1,737.7,327.9,729.3,318.2,728.5z"/>
			<path class="st9" d="M565.6,719.4c5.8,0.4,10.9-3.9,11.4-9.8c0.4-5.8-3.9-10.9-9.8-11.4c-5.8-0.4-10.9,3.9-11.4,9.8
				C555.4,713.8,559.8,718.9,565.6,719.4z"/>
			<path class="st7" d="M525,680.8c9.3-2.9,14.4-12.7,11.5-22c-2.9-9.3-12.7-14.4-22-11.5c-9.3,2.9-14.4,12.7-11.5,22
				C505.9,678.6,515.8,683.7,525,680.8z"/>
			<path class="st5" d="M293,477.9c-1.7-5.6-7.7-8.7-13.2-6.9c-5.6,1.7-8.7,7.7-6.9,13.2c1.7,5.6,7.7,8.7,13.2,6.9
				C291.6,489.4,294.7,483.4,293,477.9z"/>
			<path class="st10" d="M438.6,677.7c7.1-2.2,11-9.8,8.8-16.8c-2.2-7.1-9.8-11-16.8-8.8c-7.1,2.2-11,9.8-8.8,16.8
				C423.9,676,431.5,680,438.6,677.7z"/>
			<path class="st7" d="M455.1,328.9c2.1,6.8,9.4,10.6,16.2,8.5c6.8-2.1,10.6-9.4,8.5-16.2c-2.1-6.8-9.4-10.6-16.2-8.5
				C456.8,314.9,453,322.1,455.1,328.9z"/>
			<path class="st8" d="M239.4,621.8c3-0.9,4.6-4.1,3.7-7.1c-0.9-3-4.1-4.6-7.1-3.7c-3,0.9-4.6,4.1-3.7,7.1
				C233.3,621.1,236.4,622.7,239.4,621.8z"/>
			<path class="st11" d="M473.7,774.3c8.9,3.8,19.2-0.4,23-9.3c3.8-8.9-0.4-19.2-9.3-23c-8.9-3.8-19.2,0.4-23,9.3
				C460.6,760.2,464.8,770.5,473.7,774.3z"/>
			<path class="st5" d="M581.7,541.9c3.2,1.4,6.9-0.1,8.2-3.3c1.4-3.2-0.1-6.9-3.3-8.2c-3.2-1.4-6.9,0.1-8.2,3.3
				C577.1,536.9,578.6,540.6,581.7,541.9z"/>
			<path class="st8" d="M518.6,584.3c-3.3-1.4-7.1,0.1-8.4,3.4c-1.4,3.3,0.1,7.1,3.4,8.4c3.3,1.4,7.1-0.1,8.4-3.4
				C523.4,589.5,521.9,585.7,518.6,584.3z"/>
			<path class="st8" d="M627.9,529.9c6.6,2.8,14.2-0.3,16.9-6.8c2.8-6.6-0.3-14.2-6.8-17c-6.6-2.8-14.2,0.3-17,6.8
				C618.3,519.5,621.3,527.1,627.9,529.9z"/>
			<path class="st9" d="M770.7,645.1c0.7-1.6-0.1-3.5-1.7-4.2c-1.6-0.7-3.5,0.1-4.2,1.7c-0.7,1.6,0.1,3.5,1.7,4.2
				C768.1,647.5,770,646.8,770.7,645.1z"/>
			<path class="st10" d="M587.8,603.4c8.9,3.8,19.2-0.4,22.9-9.2c3.8-8.9-0.4-19.2-9.2-22.9c-8.9-3.8-19.2,0.4-22.9,9.2
				C574.8,589.3,578.9,599.6,587.8,603.4z"/>
			<path class="st5" d="M647.2,598.1c4.2,1.8,9-0.2,10.8-4.4c1.8-4.2-0.2-9-4.4-10.8c-4.2-1.8-9,0.2-10.8,4.4
				C641,591.5,643,596.4,647.2,598.1z"/>
			<path class="st5" d="M451.9,542.5c1-2.2-0.1-4.8-2.3-5.8c-2.2-1-4.8,0.1-5.8,2.3c-0.9,2.2,0.1,4.8,2.3,5.8
				C448.4,545.8,451,544.7,451.9,542.5z"/>
			<path class="st10" d="M465,615.2c-0.7,1.7,0.1,3.7,1.8,4.4c1.7,0.7,3.7-0.1,4.4-1.8c0.7-1.7-0.1-3.7-1.8-4.4
				C467.7,612.7,465.7,613.4,465,615.2z"/>
			<path class="st11" d="M432.7,491.2c-7.1,2.2-11,9.8-8.8,16.8c2.2,7.1,9.8,11,16.8,8.8c7.1-2.2,11-9.8,8.8-16.8
				C447.3,492.9,439.8,489,432.7,491.2z"/>
			<path class="st9" d="M56.4,478.5c-3.3-1.4-7.1,0.1-8.4,3.4c-1.4,3.3,0.1,7.1,3.4,8.4c3.3,1.4,7.1-0.1,8.4-3.4
				C61.2,483.7,59.7,479.9,56.4,478.5z"/>
			<path class="st10" d="M473.3,456.9c0.7-1.7-0.1-3.7-1.8-4.4c-1.7-0.7-3.7,0.1-4.4,1.8c-0.7,1.7,0.1,3.7,1.8,4.4
				C470.6,459.4,472.6,458.6,473.3,456.9z"/>
			<path class="st5" d="M278.1,541.1c-2.6,1.9-3.1,5.5-1.3,8.1c1.9,2.6,5.5,3.1,8.1,1.3c2.6-1.9,3.1-5.5,1.3-8.1
				C284.3,539.8,280.6,539.3,278.1,541.1z"/>
			<path class="st10" d="M565.6,454.1c-3.4,1.1-5.4,4.7-4.3,8.2c1.1,3.4,4.7,5.4,8.2,4.3c3.4-1.1,5.4-4.7,4.3-8.2
				C572.7,455,569,453.1,565.6,454.1z"/>
			<path class="st8" d="M616.7,399.1c5.7,2.4,12.2-0.2,14.6-5.9c2.4-5.7-0.2-12.2-5.9-14.6c-5.7-2.4-12.2,0.2-14.6,5.9
				C608.4,390.2,611,396.7,616.7,399.1z"/>
			<path class="st5" d="M450,125.8c2.2,1,4.8-0.1,5.8-2.3c1-2.2-0.1-4.8-2.3-5.8c-2.2-1-4.8,0.1-5.8,2.3
				C446.7,122.3,447.7,124.9,450,125.8z"/>
			<path class="st10" d="M970.2,50.3c1.7,0.7,3.7-0.1,4.4-1.8c0.7-1.7-0.1-3.7-1.8-4.4c-1.7-0.7-3.7,0.1-4.4,1.8
				C967.7,47.7,968.5,49.6,970.2,50.3z"/>
			<path class="st11" d="M531.5,378.6c7.1-2.2,11-9.8,8.8-16.8c-2.2-7.1-9.8-11-16.8-8.8c-7.1,2.2-11,9.8-8.8,16.8
				C516.9,376.9,524.4,380.8,531.5,378.6z"/>
			<path class="st9" d="M787.7,514.6c-7.8-10.8-22.9-13.1-33.7-5.3c-10.8,7.9-13.1,22.9-5.3,33.7c7.9,10.8,22.9,13.1,33.7,5.3
				C793.2,540.5,795.5,525.4,787.7,514.6z"/>
			<path class="st10" d="M686.6,472.1c3.2-7.5-0.3-16.2-7.8-19.4c-7.5-3.2-16.2,0.3-19.4,7.8c-3.2,7.5,0.3,16.2,7.8,19.4
				C674.7,483.1,683.3,479.6,686.6,472.1z"/>
			<path class="st9" d="M711.7,675.5c3.3,1.4,7.1-0.1,8.4-3.4c1.4-3.3-0.1-7.1-3.4-8.4c-3.3-1.4-7.1,0.1-8.4,3.4
				C706.9,670.3,708.4,674.1,711.7,675.5z"/>
			<path class="st10" d="M652,725.4c1.7,0.7,3.7-0.1,4.4-1.8c0.7-1.7-0.1-3.7-1.8-4.4c-1.7-0.7-3.7,0.1-4.4,1.8
				C649.5,722.7,650.3,724.6,652,725.4z"/>
			<path class="st5" d="M664.5,664.6c-1.9-2.6-5.5-3.1-8.1-1.3c-2.6,1.9-3.1,5.5-1.3,8.1c1.9,2.6,5.5,3.1,8.1,1.3
				C665.8,670.8,666.4,667.2,664.5,664.6z"/>
			<path class="st5" d="M779.7,586.3c-2.2-1-4.8,0.1-5.8,2.3c-0.9,2.2,0.1,4.8,2.3,5.8c2.2,1,4.8-0.1,5.8-2.3
				C782.9,589.8,781.9,587.2,779.7,586.3z"/>
			<path class="st10" d="M917.7,418.1c-0.7,1.7,0.1,3.7,1.8,4.4c1.7,0.7,3.7-0.1,4.4-1.8c0.7-1.7-0.1-3.7-1.8-4.4
				C920.4,415.6,918.5,416.4,917.7,418.1z"/>
			<path class="st11" d="M710.6,610c2.2,7.1,9.8,11,16.8,8.8c7.1-2.2,11-9.8,8.8-16.8c-2.2-7.1-9.8-11-16.8-8.8
				C712.4,595.4,708.4,602.9,710.6,610z"/>
			<path class="st9" d="M389.2,629.7c-2.1-2.9-6.1-3.5-9-1.5c-2.9,2.1-3.5,6.1-1.4,9c2.1,2.9,6.1,3.5,9,1.5
				C390.6,636.6,391.3,632.6,389.2,629.7z"/>
			<path class="st10" d="M478.7,686.1c1.5-1.1,1.8-3.2,0.8-4.7c-1.1-1.5-3.2-1.8-4.7-0.8c-1.5,1.1-1.8,3.2-0.8,4.7
				C475.2,686.8,477.2,687.1,478.7,686.1z"/>
			<path class="st5" d="M393.9,678.7c-3.2,0.3-5.5,3.1-5.3,6.3c0.3,3.2,3.1,5.5,6.3,5.3c3.2-0.3,5.5-3.1,5.3-6.3
				C399.9,680.8,397.1,678.4,393.9,678.7z"/>
			<path class="st5" d="M386.3,539.6c-2,1.4-2.4,4.2-1,6.1c1.4,2,4.2,2.4,6.1,1c2-1.4,2.4-4.2,1-6.1
				C391,538.7,388.2,538.2,386.3,539.6z"/>
			<path class="st9" d="M478,568.5c1.5-1.1,1.8-3.2,0.8-4.7c-1.1-1.5-3.2-1.8-4.7-0.8c-1.5,1.1-1.8,3.2-0.8,4.7
				C474.4,569.2,476.5,569.6,478,568.5z"/>
			<path class="st11" d="M375.4,592.7c1.8-7.2-2.7-14.5-9.9-16.2c-7.2-1.8-14.5,2.7-16.2,9.9c-1.8,7.2,2.7,14.5,9.9,16.2
				C366.3,604.3,373.6,599.9,375.4,592.7z"/>
			<path class="st5" d="M432,425.4c4.8-3.9,5.5-10.9,1.5-15.7c-3.9-4.8-10.9-5.5-15.7-1.5c-4.8,3.9-5.5,10.9-1.5,15.7
				C420.2,428.6,427.3,429.3,432,425.4z"/>
			<path class="st7" d="M322.8,549.5c0.9,2.3,3.4,3.4,5.6,2.5c2.3-0.9,3.4-3.4,2.5-5.6c-0.8-2.3-3.4-3.4-5.6-2.5
				C323.1,544.7,322,547.2,322.8,549.5z"/>
			<path class="st10" d="M366.2,419.1c5.3-2,8-8,6-13.3c-2-5.3-8-8-13.3-6c-5.3,2-8,8-6,13.3C354.8,418.4,360.8,421.1,366.2,419.1z"
				/>
			<path class="st8" d="M367.9,454c-0.9,2.6,0.4,5.4,3,6.3c2.6,0.9,5.4-0.4,6.3-3c0.9-2.6-0.4-5.4-3-6.3
				C371.7,450.1,368.8,451.4,367.9,454z"/>
			<path class="st10" d="M561.3,49.5c1.8,0.6,3.7-0.3,4.3-2c0.6-1.8-0.3-3.7-2-4.3c-1.8-0.6-3.7,0.3-4.3,2
				C558.6,46.9,559.5,48.9,561.3,49.5z"/>
			<path class="st10" d="M374,373.2c0,1.4,1.1,2.6,2.5,2.7c1.4,0,2.6-1.1,2.7-2.5c0-1.4-1.1-2.6-2.5-2.7
				C375.2,370.6,374,371.7,374,373.2z"/>
			<path class="st11" d="M417.2,777.7c-2-5.3-8-8-13.3-6c-5.3,2-8,8-6,13.3c2,5.3,8,8,13.3,6C416.6,789,419.3,783.1,417.2,777.7z"/>
			<path class="st9" d="M403.7,470.5c-1.7-2.1-4.8-2.4-7-0.7c-2.1,1.7-2.4,4.8-0.7,7c1.7,2.1,4.8,2.4,7,0.7
				C405.1,475.8,405.4,472.6,403.7,470.5z"/>
			<path class="st10" d="M330,451.1c1.1-0.9,1.3-2.5,0.4-3.6c-0.9-1.1-2.5-1.3-3.6-0.4c-1.1,0.9-1.3,2.5-0.4,3.6
				C327.3,451.9,328.9,452,330,451.1z"/>
			<path class="st5" d="M341.2,364.6c-2.4,0.4-4.1,2.6-3.8,5c0.4,2.4,2.6,4.1,5,3.8c2.4-0.4,4.1-2.6,3.8-5
				C345.9,365.9,343.7,364.2,341.2,364.6z"/>
			<path class="st5" d="M498.6,64.7c-1.4,1.2-1.7,3.3-0.5,4.8c1.2,1.4,3.3,1.7,4.8,0.5c1.5-1.2,1.7-3.3,0.5-4.8
				C502.2,63.7,500,63.5,498.6,64.7z"/>
			<path class="st9" d="M224.9,463.3c-1.1,0.9-1.3,2.5-0.4,3.6c0.9,1.1,2.5,1.3,3.6,0.4c1.1-0.9,1.3-2.5,0.4-3.6
				C227.6,462.6,226,462.4,224.9,463.3z"/>
			<path class="st11" d="M500.6,8.8c5.6,1,11-2.7,12-8.3c1-5.6-2.7-11-8.3-12c-5.6-1-11,2.7-12,8.3C491.3,2.4,495,7.8,500.6,8.8z"/>
			<path class="st4" d="M627.7,260.3c-12.4,4.9-18.4,19-13.5,31.4c4.9,12.4,19,18.4,31.4,13.5c12.4-4.9,18.4-19,13.5-31.4
				C654.1,261.4,640.1,255.4,627.7,260.3z"/>
			<path class="st5" d="M663,393c3,7.4,11.4,11,18.8,8.1c7.4-3,11-11.4,8.1-18.8c-3-7.4-11.4-11.1-18.8-8.1
				C663.7,377.1,660,385.5,663,393z"/>
			<path class="st6" d="M792.6,213.9c-6.9,2.8-10.3,10.6-7.5,17.5c2.8,6.9,10.6,10.3,17.5,7.5c6.9-2.8,10.3-10.6,7.5-17.5
				C807.3,214.5,799.5,211.1,792.6,213.9z"/>
			<path class="st7" d="M702.9,550.9c6.6-2.6,9.9-10.2,7.2-16.8c-2.6-6.6-10.2-9.9-16.8-7.2c-6.6,2.6-9.9,10.2-7.2,16.8
				C688.8,550.3,696.3,553.5,702.9,550.9z"/>
			<path class="st4" d="M880.1,312.7c1.6-0.7,2.4-2.5,1.8-4.1c-0.7-1.6-2.5-2.4-4.1-1.8c-1.6,0.7-2.4,2.5-1.8,4.1
				C876.6,312.6,878.4,313.4,880.1,312.7z"/>
			<path class="st8" d="M825.5,461.5c-6.8-2.3-14.1,1.3-16.4,8.1c-2.3,6.8,1.3,14.1,8.1,16.4c6.8,2.3,14.1-1.3,16.4-8.1
				C835.9,471.1,832.3,463.8,825.5,461.5z"/>
			<path class="st7" d="M858,531c-9.2-3.1-19.1,1.8-22.2,11c-3.1,9.2,1.8,19.1,11,22.2c9.2,3.1,19.1-1.8,22.2-11
				C872.1,544,867.1,534.1,858,531z"/>
			<path class="st9" d="M820.5,276.4c-1.9,5.5,1.1,11.6,6.6,13.4c5.5,1.9,11.6-1.1,13.4-6.6c1.9-5.5-1.1-11.6-6.6-13.4
				C828.3,267.8,822.3,270.8,820.5,276.4z"/>
			<path class="st7" d="M774.7,296.4c-9.7,0.5-17.1,8.8-16.6,18.5c0.5,9.7,8.8,17.1,18.5,16.6c9.7-0.5,17.1-8.8,16.6-18.5
				C792.6,303.3,784.4,295.9,774.7,296.4z"/>
			<path class="st5" d="M895.8,272.7c5.8-0.3,10.3-5.3,10-11.1c-0.3-5.8-5.3-10.3-11.1-10c-5.8,0.3-10.3,5.3-10,11.1
				C885,268.5,890,273,895.8,272.7z"/>
			<path class="st10" d="M754.6,383.3c-7.4,0.4-13.1,6.7-12.7,14.1c0.4,7.4,6.7,13.1,14.1,12.7c7.4-0.4,13.1-6.7,12.7-14.1
				C768.4,388.6,762,382.9,754.6,383.3z"/>
			<path class="st7" d="M432,246.4c-7.1,0.4-12.6,6.5-12.2,13.6c0.4,7.1,6.5,12.6,13.6,12.2c7.1-0.4,12.6-6.5,12.2-13.6
				C445.2,251.5,439.1,246,432,246.4z"/>
			<path class="st8" d="M966.9,462.2c3.1-0.2,5.5-2.8,5.3-6c-0.2-3.1-2.8-5.5-6-5.3c-3.1,0.2-5.5,2.8-5.3,6
				C961.1,460,963.7,462.4,966.9,462.2z"/>
			<path class="st11" d="M843.1,364.5c-5.9,7.7-4.4,18.7,3.3,24.6c7.7,5.9,18.7,4.4,24.6-3.3c5.9-7.7,4.4-18.7-3.3-24.6
				C860,355.3,849,356.8,843.1,364.5z"/>
			<path class="st5" d="M663.8,224.8c2.7,2.1,6.7,1.6,8.8-1.2c2.1-2.7,1.6-6.7-1.2-8.8c-2.7-2.1-6.7-1.6-8.8,1.2
				C660.5,218.8,661,222.7,663.8,224.8z"/>
			<path class="st8" d="M698,295.3c-2.2,2.8-1.6,6.9,1.2,9c2.8,2.2,6.9,1.6,9-1.2c2.2-2.8,1.6-6.9-1.2-9
				C704.2,291.9,700.1,292.5,698,295.3z"/>
			<path class="st8" d="M631.1,182c5.7,4.3,13.8,3.2,18.1-2.4c4.3-5.7,3.2-13.8-2.4-18.1c-5.7-4.3-13.8-3.2-18.1,2.4
				C624.4,169.5,625.5,177.6,631.1,182z"/>
			<path class="st7" d="M924.2,348.2c2.3,1.8,5.6,1.3,7.4-1c1.8-2.3,1.3-5.6-1-7.4c-2.3-1.8-5.6-1.3-7.4,1
				C921.4,343.1,921.9,346.4,924.2,348.2z"/>
			<path class="st9" d="M815.4,60.4c1.4,1.1,3.4,0.8,4.5-0.6c1.1-1.4,0.8-3.4-0.6-4.5c-1.4-1.1-3.4-0.8-4.5,0.6
				C813.8,57.4,814,59.4,815.4,60.4z"/>
			<path class="st10" d="M730.3,208.5c-7.7-5.9-18.7-4.4-24.5,3.3c-5.9,7.7-4.4,18.7,3.3,24.5c7.7,5.9,18.7,4.4,24.5-3.3
				C739.5,225.3,738,214.3,730.3,208.5z"/>
			<path class="st5" d="M731.6,175.7c3.6,2.8,8.8,2.1,11.6-1.5c2.8-3.6,2.1-8.8-1.5-11.6c-3.6-2.8-8.8-2.1-11.6,1.5
				C727.3,167.8,728,172.9,731.6,175.7z"/>
			<path class="st5" d="M641.9,355.8c1.5-1.9,1.1-4.7-0.8-6.2c-1.9-1.5-4.7-1.1-6.2,0.8c-1.5,1.9-1.1,4.7,0.8,6.2
				C637.6,358.1,640.4,357.7,641.9,355.8z"/>
			<path class="st10" d="M719.3,354.3c1.1-1.5,0.8-3.6-0.6-4.7c-1.5-1.1-3.6-0.8-4.7,0.6c-1.1,1.5-0.8,3.6,0.6,4.7
				C716.1,356,718.2,355.7,719.3,354.3z"/>
			<path class="st11" d="M597.6,357.5c7.4-0.4,13.1-6.7,12.7-14.1c-0.4-7.4-6.7-13.1-14.1-12.7c-7.4,0.4-13.1,6.7-12.7,14.1
				C583.9,352.2,590.2,357.9,597.6,357.5z"/>
			<path class="st9" d="M551.7,252.2c-2.8-2.2-6.9-1.6-9,1.2c-2.2,2.8-1.6,6.9,1.2,9c2.8,2.2,6.9,1.6,9-1.2
				C555,258.4,554.5,254.3,551.7,252.2z"/>
			<path class="st10" d="M559.3,313c1.5,1.1,3.6,0.8,4.7-0.6c1.1-1.5,0.8-3.6-0.6-4.7c-1.5-1.1-3.6-0.8-4.7,0.6
				C557.5,309.7,557.8,311.9,559.3,313z"/>
			<path class="st5" d="M530.7,304.3c-3,1.2-4.4,4.5-3.2,7.5c1.2,3,4.5,4.4,7.5,3.2c3-1.2,4.4-4.5,3.2-7.5
				C537,304.6,533.7,303.1,530.7,304.3z"/>
			<path class="st10" d="M604.5,233c7.4-0.4,13.1-6.7,12.7-14.1c-0.4-7.4-6.7-13.1-14.1-12.7c-7.4,0.4-13.1,6.7-12.7,14.1
				C590.7,227.7,597,233.4,604.5,233z"/>
			<path class="st8" d="M527.2,156.5c4.9,3.7,11.9,2.8,15.6-2.1c3.7-4.9,2.8-11.9-2.1-15.6c-4.9-3.7-11.9-2.8-15.6,2.1
				C521.4,145.8,522.3,152.8,527.2,156.5z"/>
			<path class="st5" d="M484.1,179.5c1.9,1.5,4.7,1.1,6.2-0.8c1.5-1.9,1.1-4.7-0.8-6.2c-1.9-1.5-4.7-1.1-6.2,0.8
				C481.8,175.3,482.2,178,484.1,179.5z"/>
			<path class="st10" d="M562.4,173.1c-1.1,1.5-0.8,3.6,0.6,4.7c1.5,1.1,3.6,0.8,4.7-0.6c1.1-1.5,0.8-3.6-0.6-4.7
				C565.7,171.3,563.5,171.6,562.4,173.1z"/>
			<path class="st11" d="M489.2,246.1c7.4-0.4,13.1-6.7,12.7-14.1c-0.4-7.4-6.7-13.1-14.1-12.7c-7.4,0.4-13.1,6.7-12.7,14.1
				C475.5,240.8,481.8,246.5,489.2,246.1z"/>
			<path class="st8" d="M707,131.3c12.4-4.9,18.4-19,13.5-31.4c-4.9-12.4-19-18.4-31.4-13.5c-12.4,4.9-18.4,19-13.5,31.4
				C680.6,130.2,694.6,136.2,707,131.3z"/>
			<path class="st10" d="M612.8,128.3c6.5,5,15.8,3.7,20.8-2.8c5-6.5,3.7-15.8-2.8-20.8c-6.5-5-15.8-3.7-20.8,2.8
				C605.1,114.1,606.3,123.4,612.8,128.3z"/>
			<path class="st9" d="M825.1,131.9c2.8,2.2,6.9,1.6,9-1.2c2.2-2.8,1.6-6.9-1.2-9c-2.8-2.2-6.9-1.6-9,1.2
				C821.7,125.7,822.2,129.8,825.1,131.9z"/>
			<path class="st9" d="M905.1,16.9c2.8,2.2,6.9,1.6,9-1.2c2.2-2.8,1.6-6.9-1.2-9c-2.8-2.2-6.9-1.6-9,1.2
				C901.7,10.7,902.2,14.8,905.1,16.9z"/>
			<path class="st10" d="M863,201.6c1.5,1.1,3.6,0.8,4.7-0.6c1.1-1.5,0.8-3.6-0.6-4.7c-1.5-1.1-3.6-0.8-4.7,0.6
				C861.2,198.3,861.5,200.4,863,201.6z"/>
			<path class="st5" d="M816.2,184.5c3-1.2,4.4-4.5,3.2-7.5c-1.2-3-4.5-4.4-7.5-3.2c-3,1.2-4.4,4.5-3.2,7.5
				C809.9,184.3,813.2,185.7,816.2,184.5z"/>
			<path class="st5" d="M765.3,38.3c1.9,1.5,4.7,1.1,6.2-0.8c1.5-1.9,1.1-4.7-0.8-6.2c-1.9-1.5-4.7-1.1-6.2,0.8
				C763,34,763.4,36.8,765.3,38.3z"/>
			<path class="st10" d="M665.8,73.2c1.5,1.1,3.6,0.8,4.7-0.6c1.1-1.5,0.8-3.6-0.6-4.7c-1.5-1.1-3.6-0.8-4.7,0.6
				C664.1,70,664.4,72.1,665.8,73.2z"/>
			<path class="st11" d="M769,88.7c-7.4,0.4-13.1,6.7-12.7,14.1c0.4,7.4,6.7,13.1,14.1,12.7c7.4-0.4,13.1-6.7,12.7-14.1
				C782.7,94,776.4,88.3,769,88.7z"/>
			<path class="st9" d="M710,431.9c-3.3,1.3-4.9,5-3.6,8.4c1.3,3.3,5,4.9,8.4,3.6c3.3-1.3,4.9-5,3.6-8.4
				C717.1,432.2,713.3,430.6,710,431.9z"/>
			<path class="st10" d="M782.4,357.2c-1.7,0.7-2.6,2.6-1.9,4.4c0.7,1.7,2.6,2.6,4.4,1.9c1.7-0.7,2.6-2.6,1.9-4.4
				C786.1,357.4,784.1,356.5,782.4,357.2z"/>
			<path class="st5" d="M765.3,434.7c-3.1-0.5-6.1,1.6-6.6,4.8c-0.5,3.1,1.6,6.1,4.8,6.6c3.2,0.5,6.1-1.6,6.6-4.8
				C770.6,438.2,768.4,435.2,765.3,434.7z"/>
			<path class="st5" d="M866.6,419c-2.3,0.9-3.4,3.4-2.5,5.7c0.9,2.3,3.4,3.4,5.7,2.5c2.3-0.9,3.4-3.4,2.5-5.7
				C871.4,419.2,868.9,418.1,866.6,419z"/>
			<path class="st9" d="M673.8,327.4c1.7-0.7,2.6-2.6,1.9-4.4c-0.7-1.7-2.6-2.6-4.4-1.9c-1.7,0.7-2.6,2.6-1.9,4.4
				C670.1,327.2,672.1,328.1,673.8,327.4z"/>
			<path class="st11" d="M915.5,148.8c6.6,3.5,14.7,1,18.2-5.5c3.5-6.6,1-14.7-5.5-18.2c-6.6-3.5-14.7-1-18.2,5.5
				C906.5,137.2,909,145.3,915.5,148.8z"/>
			<path class="st5" d="M966.3,250.5c5.6-2.6,8-9.2,5.4-14.8c-2.6-5.6-9.2-8-14.8-5.4c-5.6,2.6-8,9.2-5.4,14.8
				C954.1,250.7,960.7,253.1,966.3,250.5z"/>
			<path class="st7" d="M615.8,476.4c2.4-0.3,4.1-2.4,3.9-4.8c-0.3-2.4-2.4-4.1-4.8-3.9c-2.4,0.3-4.1,2.4-3.9,4.8
				C611.3,474.9,613.4,476.6,615.8,476.4z"/>
			<path class="st10" d="M491.1,413.6c5.7-0.6,9.8-5.7,9.1-11.4c-0.6-5.7-5.7-9.8-11.4-9.1c-5.7,0.6-9.8,5.7-9.1,11.4
				C480.3,410.1,485.4,414.2,491.1,413.6z"/>
			<path class="st8" d="M595.9,424.8c-1.5,2.3-0.9,5.3,1.3,6.9c2.3,1.5,5.3,0.9,6.9-1.3c1.5-2.3,0.9-5.3-1.3-6.9
				C600.5,421.9,597.5,422.5,595.9,424.8z"/>
			<path class="st10" d="M496.9,290.1c1-1.5,0.6-3.7-0.9-4.7c-1.5-1-3.7-0.6-4.7,0.9c-1,1.5-0.6,3.7,0.9,4.7
				C493.8,292,495.9,291.6,496.9,290.1z"/>
			<path class="st10" d="M459.1,378.3c-1.4-0.4-2.8,0.4-3.2,1.8c-0.4,1.4,0.4,2.8,1.8,3.2c1.4,0.4,2.8-0.4,3.2-1.8
				C461.3,380.1,460.5,378.6,459.1,378.3z"/>
			<path class="st11" d="M836.7,602.2c-5.7,0.6-9.8,5.7-9.1,11.4c0.6,5.7,5.7,9.8,11.4,9.1c5.7-0.6,9.8-5.7,9.1-11.4
				C847.5,605.7,842.4,601.6,836.7,602.2z"/>
			<path class="st9" d="M563.5,387.5c2.5-1.1,3.6-4.1,2.4-6.6c-1.1-2.5-4.1-3.6-6.6-2.4c-2.5,1.1-3.6,4.1-2.4,6.6
				C558.1,387.6,561,388.6,563.5,387.5z"/>
			<path class="st10" d="M521.1,448.5c1.3-0.6,1.9-2.1,1.3-3.4c-0.6-1.3-2.1-1.9-3.4-1.3c-1.3,0.6-1.9,2.1-1.3,3.4
				C518.2,448.6,519.8,449.1,521.1,448.5z"/>
			<path class="st5" d="M-8.1,403c0.3-2.4-1.5-4.6-4-4.9c-2.4-0.3-4.6,1.5-4.9,4c-0.3,2.4,1.5,4.6,3.9,4.9
				C-10.6,407.2-8.4,405.5-8.1,403z"/>
			<path class="st5" d="M381,310.4c1.7-0.8,2.4-2.8,1.7-4.5c-0.8-1.7-2.8-2.4-4.5-1.7c-1.7,0.8-2.4,2.8-1.7,4.5
				C377.3,310.4,379.3,311.2,381,310.4z"/>
			<path class="st9" d="M543.7,226.3c-1.3,0.6-1.9,2.1-1.3,3.4c0.6,1.3,2.1,1.9,3.4,1.3c1.3-0.6,1.9-2.1,1.3-3.4
				C546.5,226.3,545,225.7,543.7,226.3z"/>
			<path class="st11" d="M400.5,346.7c5.2,2.4,11.3,0.1,13.7-5.1c2.4-5.2,0.1-11.3-5.1-13.7c-5.2-2.4-11.3-0.1-13.7,5.1
				C393,338.1,395.3,344.3,400.5,346.7z"/>
			<path class="st8" d="M651.2,27.2c7.4-5.4,9.1-15.8,3.6-23.3c-5.4-7.4-15.8-9.1-23.3-3.6c-7.4,5.4-9.1,15.8-3.6,23.3
				C633.3,31,643.7,32.6,651.2,27.2z"/>
			<path class="st8" d="M38,802c2.8-6.6-0.3-14.2-6.8-17c-6.6-2.8-14.2,0.3-17,6.8c-2.8,6.6,0.3,14.2,6.8,16.9
				C27.6,811.6,35.2,808.5,38,802z"/>
			<path class="st10" d="M568.7,68.1c-15-6.4-32.3,0.6-38.7,15.6c-6.4,15,0.6,32.3,15.6,38.7c15,6.4,32.3-0.6,38.7-15.6
				C590.6,91.8,583.6,74.4,568.7,68.1z"/>
			<path class="st8" d="M16.8,672.1c2.4-5.7-0.2-12.2-5.9-14.6c-5.7-2.4-12.2,0.2-14.6,5.9c-2.4,5.7,0.2,12.2,5.9,14.6
				C7.8,680.4,14.4,677.8,16.8,672.1z"/>
			<path class="st10" d="M-15.5,703.4c-0.7,1.7,0.1,3.7,1.8,4.4c1.7,0.7,3.7-0.1,4.4-1.8c0.7-1.7-0.1-3.7-1.8-4.4
				C-12.8,700.9-14.7,701.7-15.5,703.4z"/>
			<path class="st11" d="M793.7,33.7c7.1-2.2,11-9.8,8.8-16.8c-2.2-7.1-9.8-11-16.8-8.8c-7.1,2.2-11,9.8-8.8,16.8
				C779.1,32,786.6,35.9,793.7,33.7z"/>
			<path class="st9" d="M379.1,32.6c10.8-7.9,13.1-22.9,5.3-33.7c-7.8-10.8-22.9-13.1-33.7-5.3c-10.8,7.9-13.1,22.9-5.3,33.7
				C353.2,38,368.3,40.4,379.1,32.6z"/>
			<path class="st10" d="M60.3,758.8c7.5,3.2,16.2-0.3,19.4-7.8c3.2-7.5-0.3-16.2-7.8-19.4c-7.5-3.2-16.2,0.3-19.4,7.8
				C49.2,746.9,52.7,755.6,60.3,758.8z"/>
			<path class="st9" d="M495,33.4c1.1,1.5,3.2,1.8,4.7,0.8c1.5-1.1,1.8-3.2,0.8-4.7c-0.1-0.2-0.2-0.3-0.4-0.4h-4.7
				C494.2,30.1,494,32,495,33.4z"/>
			<path class="st4" d="M52.2,552.7c-4.9-12.4-19-18.4-31.4-13.5c-12.4,4.9-18.4,19-13.5,31.4c4.9,12.4,19,18.4,31.4,13.5
				C51.1,579.1,57.1,565.1,52.2,552.7z"/>
			<path class="st5" d="M64.2,653.1c-7.4,3-11,11.4-8.1,18.8c3,7.4,11.4,11,18.8,8.1c7.4-3,11-11.4,8.1-18.8
				C80.1,653.7,71.6,650.1,64.2,653.1z"/>
			<path class="st6" d="M195.7,517.8c6.9-2.8,10.3-10.6,7.5-17.5c-2.8-6.9-10.6-10.3-17.5-7.5c-6.9,2.8-10.3,10.6-7.5,17.5
				C181,517.2,188.8,520.5,195.7,517.8z"/>
			<path class="st7" d="M118.6,768.5c2.6,6.6-0.6,14.1-7.2,16.8c-6.6,2.6-14.1-0.6-16.8-7.2c-2.6-6.6,0.6-14.1,7.2-16.8
				C108.4,758.7,116,761.9,118.6,768.5z M110.3,784.2c1.7,0.7,3.7-0.1,4.4-1.8s-0.1-3.7-1.8-4.4c-1.7-0.7-3.7,0.1-4.4,1.8
				C107.8,781.5,108.6,783.4,110.3,784.2z"/>
			<path class="st7" d="M110.3,784.2c1.7,0.7,3.7-0.1,4.4-1.8s-0.1-3.7-1.8-4.4c-1.7-0.7-3.7,0.1-4.4,1.8
				C107.8,781.5,108.6,783.4,110.3,784.2z"/>
			<path class="st8" d="M210.4,764.9c6.8,2.3,14.1-1.3,16.4-8.1c2.3-6.8-1.3-14.1-8.1-16.4c-6.8-2.3-14.1,1.3-16.4,8.1
				C200,755.3,203.6,762.6,210.4,764.9z"/>
			<path class="st7" d="M174.3,27.3c9.2,3.1,19.1-1.8,22.2-11c3.1-9.2-1.8-19.1-11-22.2c-9.2-3.1-19.1,1.8-22.2,11
				C160.2,14.2,165.2,24.2,174.3,27.3z"/>
			<path class="st9" d="M233.7,562.1c1.9-5.5-1.1-11.6-6.6-13.4c-5.5-1.9-11.6,1.1-13.4,6.6c-1.9,5.5,1.1,11.6,6.6,13.4
				C225.8,570.6,231.8,567.6,233.7,562.1z"/>
			<path class="st7" d="M186.3,591.9c-0.5-9.7-8.8-17.1-18.5-16.6c-9.7,0.5-17.1,8.8-16.6,18.5c0.5,9.7,8.8,17.1,18.5,16.6
				C179.4,609.8,186.8,601.6,186.3,591.9z"/>
			<path class="st10" d="M161.9,674.9c-0.4-7.4-6.7-13.1-14.1-12.7c-7.4,0.4-13.1,6.7-12.7,14.1c0.4,7.4,6.7,13.1,14.1,12.7
				C156.6,688.6,162.3,682.3,161.9,674.9z"/>
			<path class="st11" d="M264.1,664.7c5.9-7.7,4.4-18.7-3.3-24.6c-7.7-5.9-18.7-4.4-24.6,3.3c-5.9,7.7-4.4,18.7,3.3,24.6
				C247.2,673.9,258.3,672.4,264.1,664.7z"/>
			<path class="st8" d="M100.1,573c-2.8-2.2-6.9-1.6-9,1.2c-2.2,2.8-1.6,6.9,1.2,9c2.8,2.2,6.9,1.6,9-1.2
				C103.5,579.2,103,575.2,100.1,573z"/>
			<path class="st10" d="M126.7,511.9c5.9-7.7,4.4-18.7-3.3-24.5c-7.7-5.9-18.7-4.4-24.5,3.3c-5.9,7.7-4.4,18.7,3.3,24.5
				C109.9,521,120.8,519.6,126.7,511.9z"/>
			<path class="st5" d="M28,629.3c-1.5,1.9-1.1,4.7,0.8,6.2c1.9,1.5,4.7,1.1,6.2-0.8c1.5-1.9,1.1-4.7-0.8-6.2
				C32.2,627,29.5,627.4,28,629.3z"/>
			<path class="st10" d="M111.9,628.5c-1.5-1.1-3.6-0.8-4.7,0.6s-0.8,3.6,0.6,4.7c1.5,1.1,3.6,0.8,4.7-0.6
				C113.6,631.7,113.3,629.6,111.9,628.5z"/>
			<path class="st11" d="M-4.2,622.3c-0.4-7.4-6.7-13.1-14.1-12.7c-7.4,0.4-13.1,6.7-12.7,14.1c0.4,7.4,6.7,13.1,14.1,12.7
				C-9.5,636-3.8,629.7-4.2,622.3z"/>
			<path class="st9" d="M69.6,52.6c-2.8-2.2-6.9-1.6-9,1.2c-2.2,2.8-1.6,6.9,1.2,9c2.8,2.2,6.9,1.6,9-1.2
				C73,58.8,72.5,54.7,69.6,52.6z"/>
			<path class="st10" d="M52.8,209.9c1.5,1.1,3.6,0.8,4.7-0.6c1.1-1.5,0.8-3.6-0.6-4.7c-1.5-1.1-3.6-0.8-4.7,0.6
				c0,0.1-0.1,0.1-0.1,0.2v3.7C52.2,209.4,52.4,209.7,52.8,209.9z"/>
			<path class="st5" d="M848,31.6c3-1.2,4.4-4.5,3.2-7.5c-1.2-3-4.5-4.4-7.5-3.2c-3,1.2-4.4,4.5-3.2,7.5
				C841.7,31.3,845,32.7,848,31.6z"/>
			<path class="st10" d="M-24.2,499.2c0.4,7.4,6.7,13.1,14.1,12.7c7.4-0.4,13.1-6.7,12.7-14.1c-0.4-7.4-6.7-13.1-14.1-12.7
				C-18.9,485.5-24.6,491.8-24.2,499.2z"/>
			<path class="st11" d="M424.6,13.3c7.4-0.4,13.1-6.7,12.7-14.1c-0.4-7.4-6.7-13.1-14.1-12.7c-7.4,0.4-13.1,6.7-12.7,14.1
				C410.8,8,417.2,13.7,424.6,13.3z"/>
			<path class="st9" d="M103.2,710.8c-3.3,1.3-4.9,5-3.6,8.4c1.3,3.3,5,4.9,8.4,3.6c3.3-1.3,4.9-5,3.6-8.4
				C110.2,711.1,106.5,709.5,103.2,710.8z"/>
			<path class="st10" d="M175.5,636.1c-1.7,0.7-2.6,2.6-1.9,4.4c0.7,1.7,2.6,2.6,4.4,1.9c1.7-0.7,2.6-2.6,1.9-4.4
				C179.2,636.3,177.3,635.4,175.5,636.1z"/>
			<path class="st5" d="M163.2,720.3c0.5-3.1-1.6-6.1-4.8-6.6c-3.1-0.5-6.1,1.6-6.6,4.8c-0.5,3.1,1.6,6.1,4.8,6.6
				C159.7,725.6,162.7,723.4,163.2,720.3z"/>
			<path class="st9" d="M64.5,600.1c-1.7,0.7-2.6,2.6-1.9,4.4c0.7,1.7,2.6,2.6,4.4,1.9c1.7-0.7,2.6-2.6,1.9-4.4
				C68.2,600.3,66.2,599.4,64.5,600.1z"/>
			<path class="st7" d="M1.3,755.3c2.4-0.3,4.1-2.4,3.9-4.8c-0.3-2.4-2.4-4.1-4.8-3.9c-2.4,0.3-4.1,2.4-3.9,4.8
				C-3.2,753.8-1.1,755.5,1.3,755.3z"/>
			<path class="st10" d="M697.3,171.6c5.7-0.6,9.8-5.7,9.1-11.4c-0.6-5.7-5.7-9.8-11.4-9.1c-5.7,0.6-9.8,5.7-9.1,11.4
				C686.6,168.1,691.7,172.2,697.3,171.6z"/>
			<path class="st8" d="M61,323.4c-2.3-1.5-5.3-0.9-6.9,1.3c-1.5,2.3-0.9,5.3,1.3,6.9c2.3,1.5,5.3,0.9,6.9-1.3
				C63.9,328,63.3,325,61,323.4z"/>
			<path class="st10" d="M1044.4,23.3c1.5,1,3.7,0.6,4.7-0.9c1-1.5,0.6-3.7-0.9-4.7c-1.5-1-3.7-0.6-4.7,0.9
				C1042.5,20.1,1042.9,22.2,1044.4,23.3z"/>
			<path class="st9" d="M57,284.4c2.5-1.1,3.6-4.1,2.4-6.6c-1.1-2.5-4.1-3.6-6.6-2.4c-0.3,0.1-0.6,0.3-0.8,0.5v8
				C53.4,284.9,55.3,285.2,57,284.4z"/>
			<path class="st10" d="M710.4,15.7c1.3-0.6,1.9-2.1,1.3-3.4c-0.6-1.3-2.1-1.9-3.4-1.3c-1.3,0.6-1.9,2.1-1.3,3.4
				C707.6,15.7,709.1,16.3,710.4,15.7z"/>
			<path class="st8" d="M1011.2,57.9c-7.4,5.4-9.1,15.8-3.6,23.3c5.4,7.4,15.8,9.1,23.3,3.6c7.4-5.4,9.1-15.8,3.6-23.3
				C1029,54.1,1018.6,52.4,1011.2,57.9z"/>
			<path class="st5" d="M38.2,704.6c-3.2-1.4-6.9,0.1-8.2,3.3c-1.4,3.2,0.1,6.9,3.3,8.2c3.2,1.4,6.9-0.1,8.2-3.3
				C42.9,709.6,41.4,705.9,38.2,704.6z"/>
			<path class="st10" d="M249.9,706.4c-3.8,8.9,0.3,19.2,9.2,22.9c8.9,3.8,19.2-0.4,22.9-9.2c3.8-8.9-0.4-19.2-9.2-22.9
				C264,693.4,253.7,697.5,249.9,706.4z"/>
			<path class="st8" d="M1065.3,662.3c5.7,2.4,12.2-0.2,14.6-5.9c2.4-5.7-0.2-12.2-5.9-14.6c-5.7-2.4-12.2,0.2-14.6,5.9
				C1057,653.3,1059.6,659.9,1065.3,662.3z"/>
			<path class="st9" d="M955.1,612.8c-10.8,7.9-13.1,22.9-5.3,33.7c7.9,10.8,22.9,13.1,33.7,5.3c10.8-7.9,13.1-22.9,5.3-33.7
				C981,607.3,965.9,605,955.1,612.8z"/>
			<path class="st9" d="M771.7,265.2c-1.5,1.1-1.8,3.2-0.8,4.7c1.1,1.5,3.2,1.8,4.7,0.8c1.5-1.1,1.8-3.2,0.8-4.7
				C775.3,264.5,773.2,264.1,771.7,265.2z"/>
			<path class="st4" d="M313.6,581.9c-4.9-12.4-19-18.4-31.4-13.5c-12.4,4.9-18.4,19-13.5,31.4c4.9,12.4,19,18.4,31.4,13.5
				C312.6,608.4,318.6,594.3,313.6,581.9z"/>
			<path class="st6" d="M932.7,771.6c-2.8-6.9-10.6-10.3-17.5-7.5c-6.9,2.8-10.3,10.6-7.5,17.5c2.8,6.9,10.6,10.3,17.5,7.5
				C932.1,786.3,935.4,778.5,932.7,771.6z"/>
			<path class="st7" d="M923,190.3c-9.2-3.1-19.1,1.8-22.2,11c-3.1,9.2,1.8,19.1,11,22.2c9.2,3.1,19.1-1.8,22.2-11
				C937.2,203.3,932.2,193.4,923,190.3z"/>
			<path class="st9" d="M952.5,495.4c-1.9,5.5,1.1,11.6,6.6,13.4c5.5,1.9,11.6-1.1,13.4-6.6c1.9-5.5-1.1-11.6-6.6-13.4
				C960.4,486.9,954.4,489.9,952.5,495.4z"/>
			<path class="st7" d="M379.7,509.1c-0.5-9.7-8.8-17.1-18.5-16.6c-9.7,0.5-17.1,8.8-16.6,18.5c0.5,9.7,8.8,17.1,18.5,16.6
				C372.8,527.1,380.3,518.8,379.7,509.1z"/>
			<path class="st11" d="M898.5,748.9c9.6-12.6,7.2-30.6-5.4-40.2c-12.6-9.6-30.6-7.2-40.2,5.4c-9.6,12.6-7.2,30.6,5.4,40.2
				C870.8,763.9,888.9,761.5,898.5,748.9z"/>
			<path class="st8" d="M252.6,69.3c-2.8-2.2-6.9-1.6-9,1.2c-2.2,2.8-1.6,6.9,1.2,9c2.8,2.2,6.9,1.6,9-1.2
				C256,75.5,255.4,71.4,252.6,69.3z"/>
			<path class="st10" d="M827.9,763.6c-7.7-5.9-18.7-4.4-24.5,3.3c-5.9,7.7-4.4,18.7,3.3,24.5c7.7,5.9,18.7,4.4,24.5-3.3
				C837.1,780.5,835.6,769.5,827.9,763.6z"/>
			<path class="st5" d="M871.5,663.9c1.5-1.9,1.1-4.7-0.8-6.2c-1.9-1.5-4.7-1.1-6.2,0.8c-1.5,1.9-1.1,4.7,0.8,6.2
				C867.2,666.2,870,665.9,871.5,663.9z"/>
			<path class="st11" d="M958.9,30.5c-0.4-7.4-6.7-13.1-14.1-12.7c-7.4,0.4-13.1,6.7-12.7,14.1c0.4,7.4,6.7,13.1,14.1,12.7
				C953.6,44.2,959.3,37.9,958.9,30.5z"/>
			<path class="st9" d="M817.3,656.4c-2.8-2.2-6.9-1.6-9,1.2c-2.2,2.8-1.6,6.9,1.2,9c2.8,2.2,6.9,1.6,9-1.2
				C820.6,662.6,820.1,658.5,817.3,656.4z"/>
			<path class="st5" d="M350.6,699.2c3-1.2,4.4-4.5,3.2-7.5c-1.2-3-4.5-4.4-7.5-3.2c-3,1.2-4.4,4.5-3.2,7.5
				C344.3,698.9,347.6,700.4,350.6,699.2z"/>
			<path class="st10" d="M727.1,783.2c7.4-0.4,13.1-6.7,12.7-14.1c-0.4-7.4-6.7-13.1-14.1-12.7c-7.4,0.4-13.1,6.7-12.7,14.1
				C713.3,777.9,719.6,783.6,727.1,783.2z"/>
			<path class="st11" d="M610.4,769.4c-7.4,0.4-13.1,6.7-12.7,14.1c0.4,7.4,6.7,13.1,14.1,12.7c7.4-0.4,13.1-6.7,12.7-14.1
				C624.1,774.7,617.8,769,610.4,769.4z"/>
			<path class="st9" d="M811.6,397.1c-3.3,1.3-4.9,5-3.6,8.4c1.3,3.3,5,4.9,8.4,3.6c3.3-1.3,4.9-5,3.6-8.4
				C818.7,397.4,814.9,395.8,811.6,397.1z"/>
			<path class="st5" d="M814.9,724.9c-3.1-0.5-6.1,1.6-6.6,4.8c-0.5,3.1,1.6,6.1,4.8,6.6c3.2,0.5,6.1-1.6,6.6-4.8
				C820.2,728.4,818,725.4,814.9,724.9z"/>
			<path class="st7" d="M945.4,591.5c2.4-0.3,4.1-2.4,3.9-4.8c-0.3-2.4-2.4-4.1-4.8-3.9c-2.4,0.3-4.1,2.4-3.9,4.8
				C940.9,590.1,943,591.8,945.4,591.5z"/>
			<path class="st10" d="M535.4,10.2c-5.7,0.6-9.8,5.7-9.1,11.4c0.6,5.7,5.7,9.8,11.4,9.1c5.7-0.6,9.8-5.7,9.1-11.4
				C546.2,13.6,541.1,9.6,535.4,10.2z"/>
			<path class="st8" d="M76.6,535.9c2.3,1.5,5.3,0.9,6.9-1.3c1.5-2.3,0.9-5.3-1.3-6.9c-2.3-1.5-5.3-0.9-6.9,1.3
				C73.7,531.3,74.3,534.3,76.6,535.9z"/>
			<path class="st10" d="M619.5,707.3c1-1.5,0.6-3.7-0.9-4.7c-1.5-1.1-3.7-0.6-4.7,0.9c-1,1.5-0.6,3.7,0.9,4.7
				C616.4,709.2,618.5,708.8,619.5,707.3z"/>
			<path class="st9" d="M774.1,757.7c2.5-1.1,3.6-4.1,2.4-6.6c-1.1-2.5-4.1-3.6-6.6-2.4c-2.5,1.1-3.6,4.1-2.4,6.6
				C768.7,757.7,771.6,758.8,774.1,757.7z"/>
			<path class="st8" d="M984.1,775c-7.4,5.4-9.1,15.8-3.6,23.3c5.4,7.4,15.8,9.1,23.3,3.6c7.4-5.4,9.1-15.8,3.6-23.3
				C1002,771.2,991.6,769.6,984.1,775z"/>
			<path class="st7" d="M757.1,705.9c2.1,6.8,9.4,10.6,16.2,8.5c6.8-2.1,10.6-9.4,8.5-16.2c-2.1-6.8-9.4-10.6-16.2-8.5
				C758.7,691.9,754.9,699.1,757.1,705.9z"/>
			<path class="st5" d="M1055.5,307.7c-1.4,3.2,0.1,6.9,3.3,8.2c3.2,1.4,6.9-0.1,8.2-3.3c1.4-3.2-0.1-6.9-3.3-8.2
				C1060.5,303,1056.9,304.5,1055.5,307.7z"/>
			<path class="st8" d="M1073.2,771.9c-2.8,6.6,0.3,14.2,6.8,16.9c6.6,2.8,14.2-0.3,16.9-6.8c2.8-6.6-0.3-14.2-6.8-17
				C1083.5,762.3,1075.9,765.4,1073.2,771.9z"/>
			<path class="st10" d="M727.1,13.5c3.8-8.9-0.4-19.2-9.2-22.9c-8.9-3.8-19.2,0.4-22.9,9.2c-3.8,8.9,0.3,19.2,9.2,22.9
				C713.1,26.5,723.3,22.4,727.1,13.5z"/>
			<path class="st10" d="M1024.7,746.1c7.1-2.2,11-9.8,8.8-16.8c-2.2-7.1-9.8-11-16.8-8.8c-7.1,2.2-11,9.8-8.8,16.8
				C1010.1,744.3,1017.6,748.3,1024.7,746.1z"/>
			<path class="st8" d="M1024.3,633.6c5.7,2.4,12.2-0.2,14.6-5.9c2.4-5.7-0.2-12.2-5.9-14.6c-5.7-2.4-12.2,0.2-14.6,5.9
				C1016,624.6,1018.7,631.2,1024.3,633.6z"/>
			<path class="st10" d="M1051.2,683.5c-0.7,1.7,0.1,3.7,1.8,4.4c1.7,0.7,3.7-0.1,4.4-1.8c0.7-1.7-0.1-3.7-1.8-4.4
				C1053.9,681,1051.9,681.8,1051.2,683.5z"/>
			<path class="st11" d="M923.8,700.4c7.1-2.2,11-9.8,8.8-16.8c-2.2-7.1-9.8-11-16.8-8.8c-7.1,2.2-11,9.8-8.8,16.8
				C909.2,698.7,916.7,702.7,923.8,700.4z"/>
			<path class="st10" d="M1130.8,711.7c-7.5-3.2-16.2,0.3-19.4,7.8c-3.2,7.5,0.3,16.2,7.8,19.4c7.5,3.2,16.2-0.3,19.4-7.8
				C1141.8,723.6,1138.3,714.9,1130.8,711.7z"/>
			<path class="st4" d="M1111.1,532.8c-4.9-12.4-19-18.4-31.4-13.5c-12.4,4.9-18.4,19-13.5,31.4c4.9,12.4,19,18.4,31.4,13.5
				C1110,559.2,1116.1,545.1,1111.1,532.8z"/>
			<path class="st5" d="M1123.2,633.1c-7.4,3-11,11.4-8.1,18.8c3,7.4,11.4,11,18.8,8.1c7.4-3,11-11.4,8.1-18.8
				C1139,633.8,1130.6,630.2,1123.2,633.1z"/>
			<path class="st6" d="M1052.4,127c6.9-2.8,10.3-10.6,7.5-17.5c-2.8-6.9-10.6-10.3-17.5-7.5c-6.9,2.8-10.3,10.6-7.5,17.5
				C1037.7,126.4,1045.5,129.8,1052.4,127z"/>
			<path class="st8" d="M1067,374.1c6.8,2.3,14.1-1.3,16.4-8.1c2.3-6.8-1.3-14.1-8.1-16.4c-6.8-2.3-14.1,1.3-16.4,8.1
				C1056.6,364.5,1060.3,371.8,1067,374.1z"/>
			<path class="st7" d="M1060.2,402.2c-9.2-3.1-19.1,1.8-22.2,11c-3.1,9.2,1.8,19.1,11,22.2c9.2,3.1,19.1-1.8,22.2-11
				C1074.4,415.3,1069.4,405.3,1060.2,402.2z"/>
			<path class="st9" d="M1076.9,177.9c5.5,1.9,11.6-1.1,13.4-6.6c1.9-5.5-1.1-11.6-6.6-13.4c-5.5-1.9-11.6,1.1-13.4,6.6
				C1068.4,170,1071.4,176,1076.9,177.9z"/>
			<path class="st7" d="M1024.5,184.5c-9.7,0.5-17.1,8.8-16.6,18.5c0.5,9.7,8.8,17.1,18.5,16.6c9.7-0.5,17.1-8.8,16.6-18.5
				C1042.4,191.4,1034.2,184,1024.5,184.5z"/>
			<path class="st10" d="M1005.9,298.2c7.4-0.4,13.1-6.7,12.7-14.1c-0.4-7.4-6.7-13.1-14.1-12.7c-7.4,0.4-13.1,6.7-12.7,14.1
				C992.1,292.9,998.4,298.6,1005.9,298.2z"/>
			<path class="st11" d="M1069.2,269.2c7.7,5.9,18.7,4.4,24.6-3.3c5.9-7.7,4.4-18.7-3.3-24.6c-7.7-5.9-18.7-4.4-24.6,3.3
				C1060,252.3,1061.5,263.3,1069.2,269.2z"/>
			<path class="st5" d="M1093.9,614.8c1.5-1.9,1.1-4.7-0.8-6.2c-1.9-1.5-4.7-1.1-6.2,0.8c-1.5,1.9-1.1,4.7,0.8,6.2
				C1089.7,617,1092.5,616.7,1093.9,614.8z"/>
			<path class="st11" d="M974.6,394.3c7.4-0.4,13.1-6.7,12.7-14.1c-0.4-7.4-6.7-13.1-14.1-12.7c-7.4,0.4-13.1,6.7-12.7,14.1
				C960.9,389,967.2,394.7,974.6,394.3z"/>
			<path class="st9" d="M1003.7,511.2c-2.8-2.2-6.9-1.6-9,1.2c-2.2,2.8-1.6,6.9,1.2,9c2.8,2.2,6.9,1.6,9-1.2
				C1007.1,517.4,1006.6,513.3,1003.7,511.2z"/>
			<path class="st10" d="M1010.7,567.3c-1.1,1.5-0.8,3.6,0.6,4.7c1.5,1.1,3.6,0.8,4.7-0.6c1.1-1.5,0.8-3.6-0.6-4.7
				C1014,565.5,1011.9,565.8,1010.7,567.3z"/>
			<path class="st5" d="M982.8,563.3c-3,1.2-4.4,4.5-3.2,7.5c1.2,3,4.5,4.4,7.5,3.2c3-1.2,4.4-4.5,3.2-7.5
				C989.1,563.5,985.7,562.1,982.8,563.3z"/>
			<path class="st10" d="M1069.3,477.9c-0.4-7.4-6.7-13.1-14.1-12.7c-7.4,0.4-13.1,6.7-12.7,14.1c0.4,7.4,6.7,13.1,14.1,12.7
				C1064,491.6,1069.6,485.3,1069.3,477.9z"/>
			<path class="st11" d="M898.4,503.5c7.4-0.4,13.1-6.7,12.7-14.1c-0.4-7.4-6.7-13.1-14.1-12.7c-7.4,0.4-13.1,6.7-12.7,14.1
				C884.6,498.2,891,503.9,898.4,503.5z"/>
			<path class="st10" d="M1032.2,245.3c-1.7,0.7-2.6,2.6-1.9,4.4c0.7,1.7,2.6,2.6,4.4,1.9c1.7-0.7,2.6-2.6,1.9-4.4
				C1035.9,245.5,1033.9,244.6,1032.2,245.3z"/>
			<path class="st5" d="M1019.9,329.5c0.5-3.1-1.6-6.1-4.8-6.6c-3.1-0.5-6.1,1.6-6.6,4.8c-0.5,3.1,1.6,6.1,4.8,6.6
				C1016.4,334.8,1019.3,332.6,1019.9,329.5z"/>
			<path class="st9" d="M1123.4,580.2c-1.7,0.7-2.6,2.6-1.9,4.4c0.7,1.7,2.6,2.6,4.4,1.9c1.7-0.7,2.6-2.6,1.9-4.4
				C1127.1,580.3,1125.2,579.5,1123.4,580.2z"/>
			<path class="st9" d="M937.4,720.2c-1.7,0.7-2.6,2.6-1.9,4.4c0.7,1.7,2.6,2.6,4.4,1.9c1.7-0.7,2.6-2.6,1.9-4.4
				C941.1,720.3,939.2,719.5,937.4,720.2z"/>
			<path class="st7" d="M1071.8,730.5c-0.3-2.4-2.4-4.1-4.8-3.9c-2.4,0.3-4.1,2.4-3.9,4.8c0.3,2.4,2.4,4.1,4.8,3.9
				C1070.3,735.1,1072,732.9,1071.8,730.5z"/>
			<path class="st10" d="M838.2,673.5c-5.7,0.6-9.8,5.7-9.1,11.4c0.6,5.7,5.7,9.8,11.4,9.1c5.7-0.6,9.8-5.7,9.1-11.4
				C849,676.9,843.9,672.8,838.2,673.5z"/>
			<path class="st8" d="M923.2,633.7c-2.3-1.5-5.3-0.9-6.9,1.3c-1.5,2.3-0.9,5.3,1.3,6.9c2.3,1.5,5.3,0.9,6.9-1.3
				C926.1,638.3,925.5,635.2,923.2,633.7z"/>
			<path class="st10" d="M932.7,526.9c-1,1.5-0.6,3.7,0.9,4.7c1.5,1,3.7,0.6,4.7-0.9c1-1.5,0.6-3.7-0.9-4.7
				C935.8,524.9,933.7,525.3,932.7,526.9z"/>
			<path class="st9" d="M968.1,637.3c2.5-1.1,3.6-4.1,2.4-6.6c-1.1-2.5-4.1-3.6-6.6-2.4c-2.5,1.1-3.6,4.1-2.4,6.6
				C962.7,637.4,965.6,638.4,968.1,637.3z"/>
			<path class="st10" d="M973.2,707.5c1.3-0.6,1.9-2.1,1.3-3.4c-0.6-1.3-2.1-1.9-3.4-1.3c-1.3,0.6-1.9,2.1-1.3,3.4
				C970.3,707.6,971.9,708.1,973.2,707.5z"/>
			<path class="st5" d="M961.7,742.4c-3,1.8-3.9,5.6-2.2,8.6c1.8,3,5.6,3.9,8.6,2.2c3-1.8,3.9-5.6,2.2-8.6
				C968.5,741.5,964.6,740.6,961.7,742.4z"/>
			<path class="st5" d="M1010.2,8.7c-3.9,2.3-5.2,7.4-2.9,11.3c2.3,3.9,7.4,5.2,11.3,2.9c3.9-2.3,5.2-7.4,2.9-11.3
				C1019.2,7.6,1014.1,6.4,1010.2,8.7z"/>
			<path class="st9" d="M1086.6,15.3c-17.3,0-31.3,14-31.3,31.3s14,31.3,31.3,31.3c17.3,0,31.3-14,31.3-31.3
				S1103.9,15.3,1086.6,15.3z"/>
			<path class="st9" d="M953.6,305.9c3.1-1.8,4.1-5.8,2.2-8.8c-1.8-3.1-5.8-4.1-8.8-2.2c-3.1,1.8-4.1,5.8-2.2,8.8
				C946.6,306.7,950.6,307.7,953.6,305.9z"/>
			<path class="st5" d="M1019.5,679.6c2.1-1.2,2.8-3.9,1.5-6c-1.2-2.1-3.9-2.8-6-1.5c-2.1,1.2-2.8,3.9-1.5,6
				C1014.7,680.2,1017.4,680.8,1019.5,679.6z"/>
			<path class="st5" d="M465.5,46c6.5-4.7,7.9-13.8,3.2-20.2c-4.7-6.5-13.8-7.9-20.2-3.2c-6.5,4.7-7.9,13.8-3.2,20.2
				C450,49.3,459.1,50.7,465.5,46z"/>
			<path class="st7" d="M548,412.2c-5.8,4.2-7,12.3-2.8,18.1c4.2,5.8,12.3,7,18.1,2.8c5.8-4.2,7-12.3,2.8-18.1
				C561.9,409.2,553.8,408,548,412.2z"/>
			<path class="st7" d="M154.7,741.4c-9.3,2.9-14.4,12.7-11.5,22c2.9,9.2,12.7,14.4,22,11.5c9.3-2.9,14.4-12.7,11.5-22
				C173.8,743.7,164,738.5,154.7,741.4z"/>
			<path class="st8" d="M313.2,12.5c-3,0.9-4.6,4.1-3.7,7.1c0.9,3,4.1,4.6,7.1,3.7c3-0.9,4.6-4.1,3.7-7.1
				C319.3,13.2,316.2,11.6,313.2,12.5z"/>
			<path class="st8" d="M616.8,58.3c-3.3-1.4-7.1,0.1-8.4,3.4c-1.4,3.3,0.1,7.1,3.4,8.4c3.3,1.4,7.1-0.1,8.4-3.4
				C621.6,63.5,620,59.7,616.8,58.3z"/>
			<path class="st5" d="M515.8,714.8c-2.2-1-4.8,0.1-5.8,2.3c-0.9,2.2,0.1,4.8,2.3,5.8c2.2,1,4.8-0.1,5.8-2.3
				C519,718.4,518,715.8,515.8,714.8z"/>
			<path class="st5" d="M258.2,756.2c-2.6,1.9-3.1,5.5-1.3,8.1c1.9,2.6,5.5,3.1,8.1,1.3c2.6-1.9,3.1-5.5,1.3-8.1
				C264.4,754.9,260.8,754.3,258.2,756.2z"/>
			<path class="st9" d="M421.9,744.8c2.9-2.1,3.5-6.1,1.5-9c-2.1-2.9-6.1-3.5-9-1.5c-2.9,2.1-3.5,6.1-1.4,9
				C415,746.2,419,746.9,421.9,744.8z"/>
			<path class="st10" d="M488.9,511.1c1.5-1.1,1.8-3.2,0.8-4.7c-1.1-1.5-3.2-1.8-4.7-0.8c-1.5,1.1-1.8,3.2-0.8,4.7
				C485.3,511.9,487.4,512.2,488.9,511.1z"/>
			<path class="st5" d="M247,508.8c-3.2,0.3-5.5,3.1-5.3,6.3c0.3,3.2,3.1,5.5,6.3,5.3c3.2-0.3,5.5-3.1,5.3-6.3
				C253,510.9,250.2,508.5,247,508.8z"/>
			<path class="st5" d="M561.6,631.7c-1.4-2-4.2-2.4-6.1-1c-2,1.4-2.4,4.2-1,6.1c1.4,2,4.2,2.4,6.1,1
				C562.6,636.4,563,633.7,561.6,631.7z"/>
			<path class="st9" d="M596.2,17.5c1.5-1.1,1.8-3.2,0.8-4.7c-1.1-1.5-3.2-1.8-4.7-0.8c-1.5,1.1-1.8,3.2-0.8,4.7
				C592.6,18.3,594.7,18.6,596.2,17.5z"/>
			<path class="st11" d="M319.5,507.8c1.8-7.2-2.7-14.5-9.9-16.2c-7.2-1.8-14.5,2.7-16.2,9.9c-1.8,7.2,2.7,14.5,9.9,16.2
				C310.5,519.4,317.8,515,319.5,507.8z"/>
			<path class="st7" d="M547.6,548.9c-2.3,0.8-3.4,3.4-2.5,5.6c0.9,2.3,3.4,3.4,5.6,2.5c2.3-0.9,3.4-3.4,2.5-5.6
				C552.3,549.2,549.8,548.1,547.6,548.9z"/>
			<path class="st5" d="M263.9,22.4c-3.2-1.4-6.9,0.1-8.2,3.3c-1.4,3.2,0.1,6.9,3.3,8.2c3.2,1.4,6.9-0.1,8.2-3.3
				C268.6,27.4,267.1,23.7,263.9,22.4z"/>
			<path class="st8" d="M15,290.1c5.7,2.4,12.2-0.2,14.6-5.9c2.4-5.7-0.2-12.2-5.9-14.6c-5.7-2.4-12.2,0.2-14.6,5.9
				C6.7,281.1,9.3,287.7,15,290.1z"/>
			<path class="st4" d="M889.9,44.9c-12.4,4.9-18.4,19-13.5,31.4c4.9,12.4,19,18.4,31.4,13.5c12.4-4.9,18.4-19,13.5-31.4
				C916.3,46,902.3,40,889.9,44.9z"/>
			<path class="st8" d="M899.8,582.5c-6.8-2.3-14.1,1.3-16.4,8.1c-2.3,6.8,1.3,14.1,8.1,16.4c6.8,2.3,14.1-1.3,16.4-8.1
				C910.2,592.1,906.6,584.8,899.8,582.5z"/>
			<path class="st9" d="M165.2,110.7c-5.5-1.9-11.6,1.1-13.4,6.6c-1.9,5.5,1.1,11.6,6.6,13.4c5.5,1.9,11.6-1.1,13.4-6.6
				C173.7,118.6,170.7,112.6,165.2,110.7z"/>
			<path class="st7" d="M718.2,714.2c-0.5-9.7-8.8-17.1-18.5-16.6c-9.7,0.5-17.1,8.8-16.6,18.5c0.5,9.7,8.8,17.1,18.5,16.6
				C711.3,732.2,718.7,723.9,718.2,714.2z"/>
			<path class="st10" d="M276.1,330c-0.4-7.4-6.7-13.1-14.1-12.7c-7.4,0.4-13.1,6.7-12.7,14.1c0.4,7.4,6.7,13.1,14.1,12.7
				C270.8,343.7,276.5,337.4,276.1,330z"/>
			<path class="st11" d="M505,106.2c-7.7-5.9-18.7-4.4-24.6,3.3c-5.9,7.7-4.4,18.7,3.3,24.6c7.7,5.9,18.7,4.4,24.6-3.3
				C514.2,123.1,512.7,112.1,505,106.2z"/>
			<path class="st8" d="M341.8,91.9c2.2-2.8,1.6-6.9-1.2-9c-2.8-2.2-6.9-1.6-9,1.2c-2.2,2.8-1.6,6.9,1.2,9
				C335.6,95.3,339.7,94.7,341.8,91.9z"/>
			<path class="st10" d="M851.6,83.2c1.1-1.5,0.8-3.6-0.6-4.7c-1.5-1.1-3.6-0.8-4.7,0.6s-0.8,3.6,0.6,4.7
				C848.4,85,850.5,84.7,851.6,83.2z"/>
			<path class="st11" d="M30.6,455.3c-0.4-7.4-6.7-13.1-14.1-12.7c-7.4,0.4-13.1,6.7-12.7,14.1c0.4,7.4,6.7,13.1,14.1,12.7
				C25.3,469.1,31,462.7,30.6,455.3z"/>
			<path class="st9" d="M354.1,342.9c3.3-1.3,4.9-5,3.6-8.4c-1.3-3.3-5-4.9-8.4-3.6c-3.3,1.3-4.9,5-3.6,8.4
				C347,342.6,350.8,344.2,354.1,342.9z"/>
			<path class="st10" d="M790.7,139.2c-1.7,0.7-2.6,2.6-1.9,4.4c0.7,1.7,2.6,2.6,4.4,1.9c1.7-0.7,2.6-2.6,1.9-4.4
				C794.4,139.3,792.4,138.5,790.7,139.2z"/>
			<path class="st5" d="M400.6,213.7c-3.1-0.5-6.1,1.6-6.6,4.8c-0.5,3.1,1.6,6.1,4.8,6.6c3.2,0.5,6.1-1.6,6.6-4.8
				C405.9,217.2,403.7,214.2,400.6,213.7z"/>
			<path class="st9" d="M205.1,691.4c1.7-0.7,2.6-2.6,1.9-4.4c-0.7-1.7-2.6-2.6-4.4-1.9c-1.7,0.7-2.6,2.6-1.9,4.4
				C201.4,691.2,203.4,692.1,205.1,691.4z"/>
			<path class="st7" d="M258.2,433.7c-2.4,0.3-4.1,2.4-3.9,4.8c0.3,2.4,2.4,4.1,4.8,3.9c2.4-0.3,4.1-2.4,3.9-4.8
				C262.7,435.1,260.6,433.4,258.2,433.7z"/>
			<path class="st8" d="M24.3,74.7c2.3,1.5,5.3,0.9,6.9-1.3c1.5-2.3,0.9-5.3-1.3-6.9c-2.3-1.5-5.3-0.9-6.9,1.3
				C21.4,70.1,22,73.2,24.3,74.7z"/>
			<path class="st9" d="M123.6,185.1c1.1,2.5,4.1,3.6,6.6,2.4c2.5-1.1,3.6-4.1,2.4-6.6c-1.1-2.5-4.1-3.6-6.6-2.4
				C123.5,179.6,122.4,182.6,123.6,185.1z"/>
			<path class="st5" d="M735.1,270.7c3.2,1.4,6.9-0.1,8.2-3.3c1.4-3.2-0.1-6.9-3.3-8.2c-3.2-1.4-6.9,0.1-8.2,3.3
				C730.5,265.7,731.9,269.3,735.1,270.7z"/>
			<path class="st10" d="M993.2,155.1c8.9,3.8,19.2-0.4,22.9-9.2c3.8-8.9-0.4-19.2-9.2-22.9c-8.9-3.8-19.2,0.4-22.9,9.2
				C980.1,141.1,984.3,151.3,993.2,155.1z"/>
			<path class="st11" d="M43.7,134.6c-7.4,0.4-13.1,6.7-12.7,14.1c0.4,7.4,6.7,13.1,14.1,12.7c7.4-0.4,13.1-6.7,12.7-14.1
				C57.5,139.9,51.2,134.3,43.7,134.6z"/>
			<path class="st10" d="M1075.8,288.5c-1.5-1.1-3.6-0.8-4.7,0.6c-1.1,1.5-0.8,3.6,0.6,4.7c1.5,1.1,3.6,0.8,4.7-0.6
				C1077.5,291.7,1077.3,289.6,1075.8,288.5z"/>
			<path class="st10" d="M1012.6,439.2c-7.4,0.4-13.1,6.7-12.7,14.1c0.4,7.4,6.7,13.1,14.1,12.7c7.4-0.4,13.1-6.7,12.7-14.1
				C1026.3,444.5,1020,438.8,1012.6,439.2z"/>
			<path class="st8" d="M1048.3,568.2c1.5-2.3,0.9-5.3-1.3-6.9c-2.3-1.5-5.3-0.9-6.9,1.3c-1.5,2.3-0.9,5.3,1.3,6.9
				C1043.7,571.1,1046.8,570.5,1048.3,568.2z"/>
			<path class="st9" d="M1038.8,513.4c-2.5,1.1-3.6,4.1-2.4,6.6c1.1,2.5,4.1,3.6,6.6,2.4c2.5-1.1,3.6-4.1,2.4-6.6
				C1044.2,513.3,1041.3,512.2,1038.8,513.4z"/>
			<path class="st6" d="M1124.5,148.4c7.4,0,13.4-6,13.4-13.4c0-7.4-6-13.4-13.4-13.4c-7.4,0-13.4,6-13.4,13.4
				C1111.1,142.4,1117.1,148.4,1124.5,148.4z"/>
			<path class="st9" d="M733.2,481.6c-4.5-3.8-11.1-3.3-14.9,1.2c-3.8,4.5-3.3,11.1,1.2,14.9c4.5,3.8,11.1,3.3,14.9-1.2
				C738.1,492.1,737.6,485.4,733.2,481.6z"/>
			<path class="st9" d="M974.8,104.1c3.1-1.8,4.1-5.8,2.2-8.8c-1.8-3.1-5.8-4.1-8.8-2.2c-3.1,1.8-4.1,5.8-2.2,8.8
				C967.8,104.9,971.7,105.9,974.8,104.1z"/>
			<path class="st10" d="M975.3,180.6c0.9,1.6,3,2.1,4.6,1.2c1.6-1,2.1-3,1.2-4.6c-0.9-1.6-3-2.1-4.6-1.2
				C974.9,176.9,974.4,179,975.3,180.6z"/>
			<path class="st5" d="M130.1,606.6c1.9-5.5-1.1-11.5-6.6-13.4c-5.5-1.9-11.5,1.1-13.4,6.6c-1.9,5.5,1.1,11.5,6.6,13.4
				C122.2,615,128.2,612.1,130.1,606.6z"/>
			<path class="st5" d="M300.5,135c6.1-0.4,10.8-5.6,10.5-11.8c-0.4-6.1-5.6-10.8-11.8-10.5c-6.1,0.4-10.8,5.6-10.5,11.8
				C289,130.7,294.3,135.4,300.5,135z"/>
			<path class="st8" d="M154.8,555c-1.5-2.3-4.6-2.9-6.9-1.3c-2.3,1.5-2.9,4.6-1.3,6.9c1.5,2.3,4.6,2.9,6.9,1.3
				C155.8,560.4,156.4,557.3,154.8,555z"/>
			<path class="st9" d="M872.6,147.7c0.1,2.7,2.5,4.8,5.2,4.7c2.7-0.1,4.8-2.5,4.7-5.2c-0.1-2.7-2.5-4.8-5.2-4.7
				C874.5,142.6,872.4,144.9,872.6,147.7z"/>
			<path class="st10" d="M915.1,562.4c5.3-2,8-8,6-13.3c-2-5.3-8-8-13.3-6c-5.3,2-8,8-6,13.3C903.7,561.7,909.7,564.4,915.1,562.4z"
				/>
		</g>
	</g>
</g>
<g id="Layer_2" class="st12">
	<g id="Designed_by_Vecteezy">
		<g class="st13">
			<g>
				<g>
					<path class="st14" d="M570.5,722.9c0.5,0,1,0.5,1,0.5l-8.9,19c-1,0-3.3,0.1-3.9,0.1c-0.5,0-1-0.5-1-0.5l-3-19
						c1.8,0,4.2-0.1,4.8-0.1c0.5,0,1,0.5,1,0.5l0.9,9.3c0.1,0.8,0.1,1.9,0.1,3.1c0.3-1.3,0.6-2.5,1-3.3l3.7-9.4
						C567.9,723,569.9,722.9,570.5,722.9L570.5,722.9z"/>
				</g>
				<g>
					<path class="st14" d="M579.7,732.3c0,2.1-1.2,3.4-4,4l-3,0.6c0.2,1.3,1.1,1.9,2.4,1.9c1.7,0,2.8-1.3,2.8-1.3s0.8,0.5,0.8,1.4
						c0,1.7-2.6,3.6-5.7,3.6c-3.1,0-5.2-2-5.2-5.3c0-3.8,2.7-9.1,7.6-9.1C578.1,728.3,579.7,729.8,579.7,732.3L579.7,732.3z
						 M574.6,734.3c0.6-0.2,0.8-0.7,0.8-1.3c0-0.6-0.2-1.4-0.9-1.4c-1.2,0-1.7,1.9-1.9,3.4L574.6,734.3z"/>
				</g>
				<g>
					<path class="st14" d="M587.9,728.3c2.4,0,4.3,1.3,4.3,3c0,2.1-2.6,2.9-2.6,2.9s-0.7-2.3-2.5-2.3c-1.2,0-1.8,1.2-1.8,3.7
						c0,2.3,0.6,3.3,2.1,3.3c1.5,0,2.5-1,2.5-1s0.9,0.5,0.9,1.4c0,1.7-2.5,3.4-5.5,3.4c-3.2,0-5.1-2-5.1-5.3
						C580.1,733.5,582.9,728.3,587.9,728.3L587.9,728.3z"/>
				</g>
				<g>
					<path class="st14" d="M599.6,725.2c0.6,0,1,0.5,1,0.5l-0.5,2.9h3.1l-0.7,2.2c-0.2,0.7-0.6,1.1-1.3,1.1h-1.6l-0.9,5.7
						c-0.1,0.9,0.1,1.3,0.7,1.3c0.6,0,1.1-0.3,1.1-0.3s0.9,0.5,0.9,1.4c0,1.4-2,2.8-4.5,2.8c-2.6,0-3.7-1.6-3.3-4.5l1-6.3H593
						l0.7-2.3c0.2-0.6,0.7-1,1.3-1h0.8l1-2.7C598,725.6,599.1,725.2,599.6,725.2L599.6,725.2z"/>
				</g>
				<g>
					<path class="st14" d="M614.5,732.3c0,2.1-1.2,3.4-4,4l-3,0.6c0.2,1.3,1.1,1.9,2.4,1.9c1.7,0,2.8-1.3,2.8-1.3s0.9,0.5,0.9,1.4
						c0,1.7-2.6,3.6-5.7,3.6c-3.1,0-5.2-2-5.2-5.3c0-3.8,2.7-9.1,7.6-9.1C612.9,728.3,614.5,729.8,614.5,732.3L614.5,732.3z
						 M609.4,734.3c0.6-0.2,0.8-0.7,0.8-1.3c0-0.6-0.2-1.4-0.9-1.4c-1.2,0-1.7,1.9-1.9,3.4L609.4,734.3z"/>
				</g>
				<g>
					<path class="st14" d="M626.9,732.3c0,2.1-1.2,3.4-4,4l-3,0.6c0.2,1.3,1.1,1.9,2.4,1.9c1.7,0,2.8-1.3,2.8-1.3s0.9,0.5,0.9,1.4
						c0,1.7-2.6,3.6-5.7,3.6c-3.1,0-5.2-2-5.2-5.3c0-3.8,2.7-9.1,7.6-9.1C625.2,728.3,626.9,729.8,626.9,732.3L626.9,732.3z
						 M621.8,734.3c0.6-0.2,0.8-0.7,0.8-1.3c0-0.6-0.2-1.4-0.9-1.4c-1.2,0-1.7,1.9-1.9,3.4L621.8,734.3z"/>
				</g>
				<g>
					<path class="st14" d="M637,737.4c0,0,1,1,1,2.5c0,2.1-1.8,2.7-3.3,2.7c-2,0-3.4-0.9-4.9-1.4c-0.4,0.5-0.8,1-1.2,1.4
						c0,0-2.2-0.1-2.2-1.6c0-1.8,3.1-5,6.4-8.5c-0.4-0.1-0.7-0.1-1.1-0.1c-1.9,0-2.6,0.9-2.6,0.9s-1-1.1-0.9-2.5
						c0.1-2,2-2.5,3.5-2.5c1.6,0,2.7,0.6,3.9,1.1l0.9-1.1c0,0,2.2,0.1,2.2,1.6c0,1.8-3,4.9-6.2,8.3c0.7,0.2,1.3,0.3,1.9,0.3
						C636.2,738.5,637,737.4,637,737.4L637,737.4z"/>
				</g>
				<g>
					<path class="st14" d="M651.3,741.4c-0.8,4.8-4.1,7.3-8.3,7.3c-2.7,0-4.7-1.4-4.7-3c0-1.1,0.9-1.6,0.9-1.6s0.9,0.8,2.7,0.8
						c1.7,0,4-0.7,4.4-3.3l0.3-2c-1.1,1.6-2.6,3-4.5,3c-2.1,0-3.1-1.7-2.5-5.3l0.6-3.8c0.4-2.3,0.5-4.3,0.5-4.3c1.5-0.3,3.5-1,4.2-1
						c0.5,0,1,0.5,1,0.5l-0.8,4.8l-0.7,4.4c-0.1,0.4,0,0.6,0.4,0.6c1.8,0,2.8-5.1,2.8-5.1c0.4-2.3,0.5-4.3,0.5-4.3
						c1.5-0.3,3.5-1,4.2-1c0.5,0,1,0.5,1,0.5l-0.8,4.8L651.3,741.4z"/>
				</g>
			</g>
			<g>
				<path class="st14" d="M446.6,729.1h4.8c1.1,0,1.9,0.1,2.5,0.2c0.8,0.2,1.4,0.6,1.9,1.2c0.5,0.6,0.9,1.3,1.2,2.1
					c0.3,0.8,0.4,1.8,0.4,3c0,1.1-0.1,2-0.4,2.7c-0.3,0.9-0.8,1.7-1.4,2.3c-0.5,0.4-1.1,0.8-1.8,1c-0.6,0.2-1.3,0.3-2.3,0.3h-4.9
					V729.1z M449.2,731.2v8.5h1.9c0.7,0,1.3,0,1.6-0.1c0.4-0.1,0.8-0.3,1.1-0.5c0.3-0.3,0.5-0.7,0.7-1.2c0.2-0.6,0.3-1.4,0.3-2.4
					c0-1-0.1-1.8-0.3-2.3s-0.4-0.9-0.7-1.2c-0.3-0.3-0.7-0.5-1.2-0.6c-0.4-0.1-1.1-0.1-2.1-0.1H449.2z"/>
				<path class="st14" d="M464.6,739l2.5,0.4c-0.3,0.9-0.8,1.6-1.5,2.1c-0.7,0.5-1.5,0.7-2.6,0.7c-1.6,0-2.8-0.5-3.6-1.6
					c-0.6-0.8-0.9-1.9-0.9-3.2c0-1.5,0.4-2.8,1.2-3.6c0.8-0.9,1.8-1.3,3.1-1.3c1.4,0,2.5,0.5,3.3,1.4c0.8,0.9,1.2,2.3,1.2,4.2H461
					c0,0.7,0.2,1.3,0.6,1.7c0.4,0.4,0.9,0.6,1.4,0.6c0.4,0,0.7-0.1,1-0.3C464.3,739.8,464.5,739.4,464.6,739z M464.7,736.5
					c0-0.7-0.2-1.3-0.6-1.6c-0.4-0.4-0.8-0.6-1.3-0.6c-0.5,0-1,0.2-1.3,0.6c-0.4,0.4-0.5,0.9-0.5,1.6H464.7z"/>
				<path class="st14" d="M468,739.3l2.5-0.4c0.1,0.5,0.3,0.8,0.6,1.1c0.3,0.3,0.8,0.4,1.4,0.4c0.6,0,1.1-0.1,1.4-0.4
					c0.2-0.2,0.3-0.4,0.3-0.7c0-0.2-0.1-0.3-0.2-0.5c-0.1-0.1-0.4-0.2-0.8-0.3c-2-0.4-3.3-0.8-3.8-1.2c-0.7-0.5-1.1-1.2-1.1-2.1
					c0-0.8,0.3-1.5,1-2c0.6-0.6,1.6-0.8,3-0.8c1.3,0,2.2,0.2,2.8,0.6c0.6,0.4,1,1,1.3,1.8l-2.3,0.4c-0.1-0.4-0.3-0.6-0.6-0.8
					c-0.3-0.2-0.7-0.3-1.2-0.3c-0.7,0-1.1,0.1-1.4,0.3c-0.2,0.1-0.3,0.3-0.3,0.5c0,0.2,0.1,0.3,0.2,0.4c0.2,0.2,1,0.4,2.3,0.7
					c1.3,0.3,2.2,0.7,2.8,1.1c0.5,0.4,0.8,1.1,0.8,1.8c0,0.9-0.4,1.6-1.1,2.2c-0.7,0.6-1.8,0.9-3.2,0.9c-1.3,0-2.3-0.3-3-0.8
					C468.7,740.9,468.2,740.2,468,739.3z"/>
				<path class="st14" d="M478.5,731.3v-2.3h2.5v2.3H478.5z M478.5,741.9v-9.3h2.5v9.3H478.5z"/>
				<path class="st14" d="M482.9,742.6l2.8,0.3c0,0.3,0.2,0.6,0.3,0.7c0.2,0.2,0.6,0.3,1.1,0.3c0.6,0,1.1-0.1,1.5-0.3
					c0.2-0.1,0.4-0.3,0.5-0.6c0.1-0.2,0.1-0.6,0.1-1.1v-1.4c-0.7,1-1.7,1.5-2.8,1.5c-1.3,0-2.2-0.5-3-1.6c-0.6-0.8-0.9-1.9-0.9-3.1
					c0-1.6,0.4-2.8,1.1-3.6c0.8-0.8,1.7-1.2,2.8-1.2c1.2,0,2.1,0.5,2.9,1.5v-1.3h2.3v8.4c0,1.1-0.1,1.9-0.3,2.5
					c-0.2,0.5-0.4,1-0.8,1.3c-0.3,0.3-0.8,0.6-1.3,0.7c-0.5,0.2-1.2,0.3-2.1,0.3c-1.6,0-2.7-0.3-3.4-0.8c-0.7-0.5-1-1.2-1-2.1
					C482.9,742.8,482.9,742.7,482.9,742.6z M485.1,737.1c0,1,0.2,1.7,0.6,2.2c0.4,0.5,0.9,0.7,1.4,0.7c0.6,0,1.1-0.2,1.5-0.7
					c0.4-0.5,0.6-1.2,0.6-2.1c0-1-0.2-1.7-0.6-2.2c-0.4-0.5-0.9-0.7-1.5-0.7c-0.6,0-1.1,0.2-1.5,0.7
					C485.3,735.4,485.1,736.1,485.1,737.1z"/>
				<path class="st14" d="M502.3,741.9h-2.5v-4.8c0-1-0.1-1.7-0.2-2c-0.1-0.3-0.3-0.5-0.5-0.7c-0.2-0.2-0.5-0.2-0.9-0.2
					c-0.4,0-0.8,0.1-1.2,0.4c-0.3,0.2-0.6,0.5-0.7,0.9c-0.1,0.4-0.2,1.1-0.2,2.1v4.2h-2.5v-9.3h2.3v1.4c0.8-1.1,1.8-1.6,3.1-1.6
					c0.5,0,1,0.1,1.5,0.3c0.5,0.2,0.8,0.4,1,0.8c0.2,0.3,0.4,0.7,0.5,1c0.1,0.4,0.1,0.9,0.1,1.7V741.9z"/>
				<path class="st14" d="M509.8,739l2.5,0.4c-0.3,0.9-0.8,1.6-1.5,2.1c-0.7,0.5-1.5,0.7-2.6,0.7c-1.6,0-2.8-0.5-3.6-1.6
					c-0.6-0.8-0.9-1.9-0.9-3.2c0-1.5,0.4-2.8,1.2-3.6c0.8-0.9,1.8-1.3,3.1-1.3c1.4,0,2.5,0.5,3.3,1.4c0.8,0.9,1.2,2.3,1.2,4.2h-6.2
					c0,0.7,0.2,1.3,0.6,1.7c0.4,0.4,0.9,0.6,1.4,0.6c0.4,0,0.7-0.1,1-0.3C509.5,739.8,509.7,739.4,509.8,739z M509.9,736.5
					c0-0.7-0.2-1.3-0.6-1.6c-0.4-0.4-0.8-0.6-1.3-0.6c-0.5,0-1,0.2-1.3,0.6c-0.4,0.4-0.5,0.9-0.5,1.6H509.9z"/>
				<path class="st14" d="M522.6,741.9h-2.3v-1.4c-0.4,0.5-0.8,0.9-1.3,1.2c-0.5,0.3-1,0.4-1.6,0.4c-1.1,0-2-0.4-2.8-1.3
					c-0.8-0.9-1.1-2.1-1.1-3.6c0-1.6,0.4-2.8,1.1-3.6c0.7-0.8,1.7-1.2,2.8-1.2c1,0,1.9,0.4,2.7,1.3v-4.6h2.5V741.9z M516,737.1
					c0,1,0.1,1.7,0.4,2.2c0.4,0.6,1,1,1.7,1c0.6,0,1.1-0.2,1.5-0.7c0.4-0.5,0.6-1.2,0.6-2.2c0-1.1-0.2-1.8-0.6-2.3
					c-0.4-0.5-0.9-0.7-1.5-0.7c-0.6,0-1.1,0.2-1.5,0.7C516.2,735.4,516,736.1,516,737.1z"/>
				<path class="st14" d="M529.2,741.9v-12.9h2.5v4.6c0.8-0.9,1.7-1.3,2.7-1.3c1.1,0,2.1,0.4,2.8,1.2c0.7,0.8,1.1,2,1.1,3.5
					c0,1.6-0.4,2.8-1.1,3.7c-0.8,0.9-1.7,1.3-2.8,1.3c-0.5,0-1.1-0.1-1.6-0.4c-0.5-0.3-1-0.7-1.3-1.2v1.4H529.2z M531.7,737.1
					c0,1,0.2,1.7,0.5,2.1c0.4,0.7,1,1,1.7,1c0.5,0,1-0.2,1.4-0.7c0.4-0.5,0.6-1.2,0.6-2.2c0-1.1-0.2-1.8-0.6-2.3
					c-0.4-0.5-0.9-0.7-1.5-0.7c-0.6,0-1.1,0.2-1.5,0.7C531.9,735.4,531.7,736.1,531.7,737.1z"/>
				<path class="st14" d="M538.8,732.6h2.6l2.2,6.6l2.2-6.6h2.6l-3.3,9l-0.6,1.6c-0.2,0.5-0.4,1-0.6,1.2c-0.2,0.3-0.4,0.5-0.7,0.7
					c-0.3,0.2-0.6,0.3-0.9,0.4c-0.4,0.1-0.8,0.1-1.3,0.1c-0.5,0-0.9,0-1.4-0.1l-0.2-1.9c0.4,0.1,0.7,0.1,1,0.1c0.6,0,1-0.2,1.3-0.5
					c0.3-0.3,0.5-0.8,0.6-1.3L538.8,732.6z"/>
			</g>
		</g>
	</g>
</g>
</svg>
